<svg width="74" height="74" viewBox="0 0 74 74" fill="none" xmlns="http://www.w3.org/2000/svg">
<path d="M15.7545 59.2636C10.0144 59.2636 6.00408 57.5452 4.27806 54.2761V54.276C2.16339 50.2708 3.90501 44.7466 9.18188 38.721C13.9934 33.2267 21.2998 27.7424 29.7552 23.2781C38.2109 18.8138 46.8606 15.8738 54.1113 14.9995C62.0636 14.0406 67.6073 15.7185 69.7218 19.7237C71.8364 23.7289 70.0949 29.2531 64.818 35.2788C60.0065 40.773 52.7002 46.2575 44.2447 50.7218C35.7892 55.1861 27.1393 58.126 19.8886 59.0003C18.4273 59.1766 17.0469 59.2636 15.7545 59.2636ZM8.13089 52.2419C9.30816 54.4717 13.5085 55.3813 19.3672 54.6747C26.102 53.8629 34.2146 51.0906 42.2106 46.8691C50.2066 42.6474 57.0713 37.5118 61.5405 32.4086C65.4282 27.9693 67.0464 23.9878 65.8692 21.7579C64.692 19.5283 60.4919 18.6187 54.6329 19.3253C47.8981 20.1373 39.7855 22.9093 31.7894 27.131C23.7935 31.3526 16.9286 36.4882 12.4595 41.5914C8.57201 46.0308 6.95378 50.0122 8.13089 52.2419Z" fill="#FF8856"/>
<path d="M54.1114 14.9997C48.9231 15.6251 43.0183 17.309 36.9809 19.8516V24.5997C43.2316 21.8017 49.3553 19.9614 54.6329 19.3251C60.4919 18.6187 64.6921 19.5283 65.8692 21.7578C67.0463 23.9876 65.4281 27.9692 61.5406 32.4085C57.0715 37.5118 50.2067 42.6472 42.2107 46.8689C40.4677 47.7892 38.7193 48.6403 36.9809 49.4175V54.1643C39.3934 53.1497 41.8271 51.9983 44.2449 50.7218C52.7004 46.2575 60.0068 40.773 64.8182 35.2788C70.0949 29.2531 71.8365 23.7289 69.722 19.7237C67.6073 15.7185 62.0637 14.0407 54.1114 14.9997Z" fill="#FF641A"/>
<path d="M58.0424 60.0393C56.4051 60.0393 54.6147 59.8755 52.6846 59.544C45.6228 58.3306 37.2917 55.0242 29.226 50.2337C21.1602 45.4433 14.2706 39.7099 9.82629 34.0894C4.9521 27.9254 3.51751 22.4266 5.78665 18.606C8.05578 14.7854 13.5706 13.4145 21.3156 14.745C28.3773 15.9583 36.7084 19.2647 44.7742 24.0551C52.8398 28.8455 59.7294 34.5791 64.1738 40.1995C69.048 46.3635 70.4827 51.8623 68.2134 55.683C66.5098 58.5514 62.9754 60.0393 58.0424 60.0393ZM15.9038 18.519C12.6469 18.519 10.3457 19.3008 9.4619 20.7889C8.19867 22.9157 9.58833 26.8967 13.1793 31.438C17.3074 36.6585 23.7813 42.0284 31.4087 46.5585C39.036 51.0885 46.849 54.204 53.4084 55.331C59.1143 56.3115 63.2749 55.6269 64.5383 53.4999C65.8015 51.3731 64.4117 47.3921 60.8207 42.8508C56.6926 37.6303 50.2187 32.2604 42.5912 27.7302C34.9639 23.2002 27.1509 20.0848 20.5916 18.9578C18.8775 18.6634 17.3022 18.519 15.9038 18.519Z" fill="#00FFE7"/>
<path d="M44.7742 24.0551C42.1869 22.5185 39.5725 21.1355 36.9811 19.9243V24.6685C38.8482 25.599 40.7253 26.6219 42.5912 27.7301C50.2187 32.2603 56.6926 37.6302 60.8207 42.8507C64.4116 47.392 65.8015 51.373 64.5383 53.4998C63.2749 55.6268 59.1143 56.3112 53.4083 55.3309C48.4428 54.4777 42.7589 52.4842 36.9811 49.6012V54.3469C42.481 56.9209 47.8769 58.7179 52.6845 59.5439C54.6145 59.8755 56.4049 60.0392 58.0422 60.0392C62.9752 60.0392 66.5096 58.5511 68.2132 55.6828C70.4825 51.8622 69.0476 46.3636 64.1736 40.1994C59.7294 34.5791 52.8398 28.8455 44.7742 24.0551Z" fill="#00DDC1"/>
<path d="M37.3885 74C32.8982 74.0001 28.8106 69.9398 25.8689 62.552C23.1671 55.7669 21.6102 46.7649 21.4845 37.2039C21.3588 27.6431 22.6788 18.6031 25.2011 11.7493C27.9675 4.23253 31.985 0.0601056 36.5138 0.000577939C36.5463 0.000144485 36.5792 0 36.6119 0C41.1022 0 45.1898 4.06002 48.1314 11.4478C50.8329 18.233 52.39 27.2351 52.5159 36.7961C52.6416 46.3569 51.3216 55.3969 48.799 62.2506C46.0327 69.7675 42.015 73.9399 37.4864 73.9994C37.4538 73.9999 37.421 74 37.3885 74ZM36.6093 4.35694C36.5964 4.35694 36.5838 4.35708 36.5711 4.35722C34.05 4.39031 31.3281 7.71635 29.2898 13.2542C26.947 19.6203 25.7221 28.1054 25.8408 37.1466C25.9597 46.1879 27.4072 54.6379 29.9166 60.9402C32.0885 66.3948 34.8798 69.6431 37.3909 69.6431C37.4038 69.6431 37.4164 69.6431 37.4291 69.6428C39.9502 69.6097 42.6721 66.2836 44.7102 60.7458C47.0532 54.3797 48.278 45.8946 48.1592 36.8533C48.0403 27.8119 46.5929 19.3618 44.0835 13.0595C41.9116 7.60495 39.1204 4.35694 36.6093 4.35694Z" fill="#1F5C99"/>
<path d="M43.6644 40.9581C41.4784 44.6387 36.7225 45.8504 33.0419 43.6643C29.3613 41.4783 28.1497 36.7224 30.3357 33.0418C32.5218 29.3612 37.2776 28.1495 40.9582 30.3356C44.6388 32.5216 45.8505 37.2775 43.6644 40.9581Z" fill="#FA184B"/>
<path d="M40.9581 30.3373C39.7051 29.5931 38.3274 29.2436 36.969 29.2502V44.7523C39.6226 44.7604 42.2112 43.4064 43.6644 40.9598C45.8505 37.2794 44.6388 32.5234 40.9581 30.3373Z" fill="#BD0533"/>
<path d="M48.1313 11.4474C45.2705 4.26248 41.3258 0.226448 36.9809 0.0100098V4.38212C39.3929 4.68279 42.018 7.87215 44.0834 13.0591C46.5928 19.3614 48.0404 27.8116 48.1592 36.8529C48.278 45.8942 47.0532 54.3793 44.7102 60.7455C42.6721 66.2833 39.9502 69.6095 37.429 69.6424C37.4163 69.6427 37.4038 69.6427 37.3909 69.6427C37.2551 69.6427 37.1181 69.6313 36.9807 69.6125V73.9881C37.1162 73.9956 37.2521 73.9996 37.3883 73.9996C37.421 73.9996 37.4538 73.9995 37.4863 73.999C42.0148 73.9395 46.0325 69.7669 48.7988 62.2503C51.3214 55.3965 52.6413 46.3565 52.5157 36.7957C52.39 27.2348 50.8329 18.2326 48.1313 11.4474Z" fill="#0E365C"/>
<path d="M68.5313 58.4348C67.0596 60.9128 63.8575 61.7286 61.3794 60.2569C58.9014 58.7852 58.0856 55.5831 59.5575 53.105C61.0292 50.627 64.2313 49.8112 66.7093 51.283C69.1874 52.7548 70.0032 55.9567 68.5313 58.4348Z" fill="#FFD396"/>
<path d="M66.7093 51.2843C65.8657 50.7832 64.9382 50.5478 64.0235 50.5523V60.9895C65.8101 60.9949 67.553 60.0834 68.5313 58.4361C70.0032 55.9581 69.1874 52.756 66.7093 51.2843Z" fill="#FF9F00"/>
<path d="M15.7925 19.9848C14.3208 22.4629 11.1187 23.2787 8.64065 21.8069C6.1626 20.3352 5.34683 17.1332 6.8187 14.6551C8.29042 12.177 11.4925 11.3613 13.9705 12.833C16.4486 14.3047 17.2644 17.5068 15.7925 19.9848Z" fill="#FFD396"/>
<path d="M13.9706 12.8341C13.1269 12.3331 12.1995 12.0977 11.2847 12.1022V22.5393C13.0713 22.5448 14.8142 21.6333 15.7925 19.986C17.2644 17.5079 16.4486 14.306 13.9706 12.8341Z" fill="#FF9F00"/>
</svg>
