<svg width="183" height="183" viewBox="0 0 183 183" fill="none" xmlns="http://www.w3.org/2000/svg">
<path d="M96.0082 174.877H84.0631C82.216 174.877 80.7184 173.38 80.7184 171.533V114.674H99.3526V171.533C99.3529 173.38 97.8553 174.877 96.0082 174.877Z" fill="#EE8700"/>
<path d="M99.3529 114.676H80.7187V141.577H99.3529V114.676Z" fill="#CC7400"/>
<path d="M70.1515 3.2554L43.8435 178.611C43.4968 180.921 45.2864 183 47.6236 183H57.2869C59.179 183 60.7864 181.616 61.067 179.745L87.375 4.3895C87.7213 2.07841 85.9317 0 83.5945 0H73.9313C72.0394 0 70.4321 1.38394 70.1515 3.2554Z" fill="#FF9811"/>
<path d="M109.068 0H99.4055C97.0683 0 95.2787 2.07841 95.6254 4.3895L121.933 179.745C122.214 181.616 123.822 183 125.714 183H135.376C137.714 183 139.503 180.922 139.157 178.611L112.848 3.2554C112.568 1.38394 110.961 0 109.068 0Z" fill="#FF9811"/>
<path d="M116.207 141.577H133.601L128.417 107.027H111.023L116.207 141.577Z" fill="#EE8700"/>
<path d="M49.3993 141.577H66.7929L71.9765 107.027H54.5826L49.3993 141.577Z" fill="#EE8700"/>
<path d="M156.717 123.359H26.283C19.9499 123.359 14.8155 118.225 14.8155 111.891V27.9109C14.8155 21.5777 19.9495 16.4434 26.283 16.4434H156.717C163.05 16.4434 168.184 21.5774 168.184 27.9109V111.892C168.184 118.225 163.05 123.359 156.717 123.359Z" fill="#FFC477"/>
<path d="M61.6313 40.1912C69.1458 30.3349 78.1925 22.3837 88.1188 16.4434H26.283C19.9499 16.4434 14.8155 21.5774 14.8155 27.9109V111.892C14.8155 118.225 19.9499 123.359 26.283 123.359H46.6325C37.9325 96.5362 42.545 65.2261 61.6313 40.1912Z" fill="#FFB655"/>
<path d="M26.283 113.804C25.229 113.804 24.3715 112.946 24.3715 111.892V27.9115C24.3715 26.8578 25.2286 26 26.283 26H156.717C157.771 26 158.628 26.8575 158.628 27.9115V111.892C158.628 112.946 157.771 113.804 156.717 113.804H26.283V113.804Z" fill="#4E901E"/>
<path d="M61.6313 40.1914C65.6609 34.9059 70.1348 30.1736 74.9449 26H26.283C25.229 26 24.3715 26.8575 24.3715 27.9115V111.892C24.3715 112.946 25.2286 113.804 26.283 113.804H44.1298C39.2045 89.3148 44.7725 62.3048 61.6313 40.1914Z" fill="#47821C"/>
<path d="M120.964 127.738H62.0352C59.9243 127.738 58.2129 126.026 58.2129 123.915V109.736C58.2129 107.625 59.9243 105.914 62.0352 105.914H120.965C123.076 105.914 124.787 107.625 124.787 109.736V123.915C124.787 126.026 123.076 127.738 120.964 127.738Z" fill="#FFB655"/>
<path d="M74.9453 123.915V109.736C74.9453 107.625 76.6566 105.914 78.7676 105.914H62.0349C59.9239 105.914 58.2126 107.625 58.2126 109.736V123.915C58.2126 126.026 59.9239 127.738 62.0349 127.738H78.7676C76.6566 127.738 74.9453 126.026 74.9453 123.915Z" fill="#FFA733"/>
<path d="M59.0658 67.694H49.7528C48.643 67.694 47.6415 67.0299 47.209 66.0077C46.7769 64.9855 46.9988 63.8042 47.7716 63.0082L51.75 58.9125C51.7593 58.9029 51.769 58.8932 51.7783 58.8843C53.6311 57.0153 55.0698 54.3336 54.6244 53.5748C54.4829 53.3335 54.3935 53.3106 54.3217 53.292C53.7241 53.1384 52.5028 53.5859 51.8862 53.954C50.5877 54.7543 48.8935 54.3436 48.0943 53.0447C47.2948 51.7458 47.7076 50.0402 49.0068 49.2407C49.5798 48.8879 52.5939 47.168 55.6549 47.9318C57.2368 48.3264 58.5286 49.3118 59.3899 50.7812C61.9444 55.1396 57.9102 60.3354 56.2661 62.1708H59.0658C60.5912 62.1708 61.8272 63.4071 61.8272 64.9322C61.8283 66.457 60.5912 67.694 59.0658 67.694Z" fill="white"/>
<path d="M47.7719 63.0074C46.9988 63.8034 46.7769 64.9851 47.2093 66.0069C47.2819 66.1789 47.3759 66.3361 47.4785 66.4862C48.0882 64.7288 48.7581 62.9831 49.4793 61.25L47.7719 63.0074Z" fill="#DCF4CA"/>
<path d="M55.6556 47.9318C52.5946 47.168 49.5805 48.8879 49.0075 49.2407C47.709 50.0402 47.2962 51.7455 48.095 53.0447C48.8939 54.3432 50.5881 54.7543 51.8869 53.954C52.2086 53.7617 52.6947 53.5501 53.1715 53.4118C54.1201 51.62 55.1345 49.8494 56.2103 48.1005C56.0298 48.0358 55.8447 47.9793 55.6556 47.9318Z" fill="#DCF4CA"/>
<path d="M94.7822 67.694H85.4692C84.3594 67.694 83.3579 67.0299 82.9255 66.0077C82.4933 64.9855 82.7153 63.8042 83.488 63.0082L87.4665 58.9125C87.4758 58.9029 87.4854 58.8932 87.4947 58.8843C89.3476 57.0153 90.7862 54.3336 90.3409 53.5748C90.1994 53.3335 90.11 53.3106 90.0382 53.292C89.4405 53.1384 88.2192 53.5859 87.6027 53.954C86.3042 54.7543 84.61 54.3436 83.8108 53.0447C83.0112 51.7458 83.4241 50.0402 84.7233 49.2407C85.2962 48.8879 88.3104 47.168 91.3713 47.9318C92.9533 48.3264 94.245 49.3118 95.1064 50.7812C97.6609 55.1396 93.6267 60.3354 91.9825 62.1708H94.7822C96.3077 62.1708 97.5437 63.4071 97.5437 64.9322C97.5444 66.457 96.3077 67.694 94.7822 67.694Z" fill="white"/>
<path d="M76.8704 57.5693H75.0293V55.7282C75.0293 54.2031 73.7933 52.9668 72.2678 52.9668C70.7424 52.9668 69.5064 54.2031 69.5064 55.7282V57.5693H67.6653C66.1402 57.5693 64.9039 58.8053 64.9039 60.3308C64.9039 61.8562 66.1402 63.0922 67.6653 63.0922H69.5064V64.9333C69.5064 66.4584 70.7424 67.6947 72.2678 67.6947C73.7933 67.6947 75.0293 66.4584 75.0293 64.9333V63.0922H76.8704C78.3955 63.0922 79.6318 61.8562 79.6318 60.3308C79.6318 58.8053 78.3955 57.5693 76.8704 57.5693Z" fill="white"/>
<path d="M112.769 57.2573H105.706C104.181 57.2573 102.945 56.0209 102.945 54.4958C102.945 52.9707 104.181 51.7344 105.706 51.7344H112.769C114.295 51.7344 115.531 52.9707 115.531 54.4958C115.531 56.0209 114.295 57.2573 112.769 57.2573Z" fill="white"/>
<path d="M112.769 66.0932H105.706C104.181 66.0932 102.945 64.8569 102.945 63.3318C102.945 61.8066 104.181 60.5703 105.706 60.5703H112.769C114.295 60.5703 115.531 61.8066 115.531 63.3318C115.531 64.8569 114.295 66.0932 112.769 66.0932Z" fill="white"/>
<path d="M133.247 55.9112H132.77V52.7247C132.77 51.1996 131.534 49.9633 130.009 49.9633C128.483 49.9633 127.247 51.1996 127.247 52.7247V55.9112H125.515V50.572C125.515 49.0469 124.279 47.8105 122.753 47.8105C121.228 47.8105 119.992 49.0469 119.992 50.572V58.6726C119.992 60.1977 121.228 61.434 122.753 61.434H127.247V64.9321C127.247 66.4573 128.483 67.6936 130.009 67.6936C131.534 67.6936 132.77 66.4573 132.77 64.9321V61.434H133.247C134.772 61.434 136.008 60.1977 136.008 58.6726C136.008 57.1475 134.772 55.9112 133.247 55.9112Z" fill="white"/>
</svg>
