<svg width="140" height="140" viewBox="0 0 140 140" fill="none" xmlns="http://www.w3.org/2000/svg">
<g clip-path="url(#clip0)">
<path d="M135.354 25.6583C113.799 18.4126 91.429 18.9748 70 27.3463C48.5558 18.9691 26.1682 18.4115 4.59802 25.6745C1.84606 26.601 -1.52588e-05 29.1921 -1.52588e-05 32.0958V116.457C-1.52588e-05 120.99 4.34602 124.264 8.70057 123.003C24.73 118.362 41.146 118.005 57.2353 121.924V121.924C57.2353 124.475 59.3029 126.542 61.8531 126.542H78.1466C80.6971 126.542 82.7644 124.474 82.7644 121.924C98.8543 118.005 115.27 118.362 131.299 123.003C135.654 124.264 140 120.99 140 116.457V32.0958C140 29.1737 138.124 26.5895 135.354 25.6583Z" fill="url(#paint0_linear)"/>
<path d="M140 32.0945V116.457C140 117.958 139.522 119.32 138.724 120.426C137.911 119.293 136.747 118.409 135.355 117.942C132.522 116.989 129.676 116.172 126.819 115.49C122.741 114.516 119.87 110.864 119.87 106.671V21.8169C125.061 22.6541 130.233 23.9361 135.355 25.6573C138.125 26.5906 140 29.1738 140 32.0945Z" fill="url(#paint1_linear)"/>
<path d="M-1.52588e-05 88.1111V116.457C-1.52588e-05 120.99 4.34602 124.265 8.70057 123.004C24.73 118.362 41.146 118.005 57.2353 121.924V121.924C57.2353 124.475 59.3029 126.542 61.8534 126.542H78.1469C80.6974 126.542 82.765 124.475 82.765 121.924C98.8548 118.005 115.271 118.362 131.3 123.003C135.654 124.264 140 120.99 140 116.457V88.1108H-1.52588e-05V88.1111Z" fill="url(#paint2_linear)"/>
<path d="M131.3 123.004C135.654 124.264 140 120.99 140 116.457V88.1108H82.7647V121.924C98.8545 118.005 115.27 118.362 131.3 123.004Z" fill="url(#paint3_linear)"/>
<path d="M8.7003 123.004C4.34575 124.264 -1.52588e-05 120.99 -1.52588e-05 116.457V88.1108H57.2353V121.924C41.1454 118.005 24.7295 118.362 8.7003 123.004Z" fill="url(#paint4_linear)"/>
<path d="M129.606 26.396C109.947 19.7875 89.544 20.3003 70 27.9355C50.442 20.2951 30.0237 19.7864 10.3504 26.4109C7.84052 27.2561 6.15695 29.6191 6.15695 32.2675V109.208C6.15695 113.343 10.1206 116.329 14.0925 115.179C28.7121 110.946 42.586 110.62 57.26 114.195V114.195C57.26 116.521 59.1456 118.407 61.4718 118.407H78.5282C80.8544 118.407 82.74 116.521 82.74 114.195C97.4145 110.621 111.289 110.946 125.908 115.179C129.88 116.329 133.843 113.343 133.843 109.209V32.2673C133.843 29.602 132.132 27.2454 129.606 26.396Z" fill="url(#paint5_linear)"/>
<path d="M129.606 26.396C109.947 19.7875 89.544 20.3003 70 27.9355C50.442 20.2951 30.0237 19.7864 10.3504 26.4109C7.84052 27.2561 6.15695 29.6191 6.15695 32.2675V109.208C6.15695 113.343 10.1206 116.329 14.0925 115.179C28.7121 110.946 42.586 110.62 57.26 114.195V114.195C57.26 116.521 59.1456 118.407 61.4718 118.407H78.5282C80.8544 118.407 82.74 116.521 82.74 114.195C97.4145 110.621 111.289 110.946 125.908 115.179C129.88 116.329 133.843 113.343 133.843 109.209V32.2673C133.843 29.602 132.132 27.2454 129.606 26.396Z" fill="url(#paint6_linear)"/>
<path d="M70 82.6208V118.407H78.5282C80.8544 118.407 82.74 116.521 82.74 114.195C97.4145 110.62 111.289 110.946 125.908 115.179C129.879 116.329 133.843 113.343 133.843 109.208V82.6211H70V82.6208Z" fill="url(#paint7_linear)"/>
<path d="M10.3943 18.4097C7.86797 19.2591 6.15695 21.6157 6.15695 24.2809V101.222C6.15695 105.341 10.1003 108.35 14.0565 107.203C32.5785 101.832 51.6677 102.727 70 109.889V19.9492C50.4565 12.3142 30.0539 11.8009 10.3943 18.4097Z" fill="url(#paint8_linear)"/>
<path d="M58.6059 100.592C44.9444 98.1287 31.5684 98.1281 17.9055 100.592C15.6534 101.038 13.8408 99.6429 13.8408 97.3738C13.8408 94.7651 13.8408 93.4609 13.8408 90.8522C13.8408 88.5831 15.6534 86.2998 17.9055 85.8531C31.5684 83.39 44.9444 83.3902 58.6059 85.8531C60.858 86.2998 62.6706 88.5831 62.6706 90.8522V97.3738C62.6706 99.6429 60.858 101.038 58.6059 100.592Z" fill="url(#paint9_linear)"/>
<path d="M58.6059 77.4212C44.9444 74.9583 31.5684 74.9581 17.9055 77.4212C15.6534 77.8679 13.8408 76.4725 13.8408 74.2034C13.8408 58.5226 13.8408 42.8415 13.8408 27.1607C13.8408 24.8916 15.6534 22.6082 17.9055 22.1613C31.5687 19.6979 44.9444 19.6984 58.6059 22.1616C60.858 22.6082 62.6706 24.8916 62.6706 27.1607V74.2034C62.6706 76.4723 60.858 77.8679 58.6059 77.4212Z" fill="url(#paint10_linear)"/>
<path d="M129.606 18.4097C109.947 11.8012 89.544 12.3139 70 19.9492V109.889C88.3331 102.727 107.422 101.831 125.944 107.203C129.9 108.35 133.843 105.341 133.843 101.222V24.2809C133.843 21.6157 132.132 19.2588 129.606 18.4097Z" fill="url(#paint11_linear)"/>
<path d="M129.606 18.4097C113.261 12.9153 96.4029 12.3455 79.951 16.697C78.2965 17.1346 77.1373 18.6224 77.1373 20.3337V52.2875L131.179 106.329C132.768 105.217 133.843 103.371 133.843 101.222V24.2809C133.843 21.6157 132.132 19.2587 129.606 18.4097Z" fill="url(#paint12_linear)"/>
<path d="M76.3137 20.3511V50.6026C76.3137 52.4756 78.5781 53.4133 79.9024 52.0891L86.7283 45.2631C88.7084 43.2831 91.9188 43.2831 93.8988 45.2631L100.725 52.0891C102.049 53.4133 104.313 52.4756 104.313 50.6026V16.9873C104.313 15.01 102.689 13.4296 100.712 13.4579C93.5222 13.5611 86.3363 14.5842 79.229 16.5277C77.5073 16.9988 76.3137 18.566 76.3137 20.3511Z" fill="url(#paint13_linear)"/>
<path d="M76.3137 31.0132V50.6028C76.3137 52.4757 78.5781 53.4137 79.9024 52.0892L86.7283 45.2633C88.7084 43.2832 91.9188 43.2832 93.8988 45.2633L100.725 52.0892C102.049 53.4135 104.313 52.4755 104.313 50.6028V31.0132H76.3137Z" fill="url(#paint14_linear)"/>
</g>
<defs>
<linearGradient id="paint0_linear" x1="21.804" y1="26.0909" x2="117.092" y2="121.379" gradientUnits="userSpaceOnUse">
<stop stop-color="#F7E07D"/>
<stop offset="1" stop-color="#E69642"/>
</linearGradient>
<linearGradient id="paint1_linear" x1="140.815" y1="72.33" x2="129.546" y2="71.1477" gradientUnits="userSpaceOnUse">
<stop stop-color="#D52C1C" stop-opacity="0"/>
<stop offset="0.28" stop-color="#D12C1E" stop-opacity="0.28"/>
<stop offset="0.5735" stop-color="#C42C23" stop-opacity="0.574"/>
<stop offset="0.8721" stop-color="#AF2B2C" stop-opacity="0.872"/>
<stop offset="1" stop-color="#A42B31"/>
</linearGradient>
<linearGradient id="paint2_linear" x1="70" y1="104.765" x2="70" y2="129.111" gradientUnits="userSpaceOnUse">
<stop stop-color="#D52C1C" stop-opacity="0"/>
<stop offset="0.28" stop-color="#D12C1E" stop-opacity="0.28"/>
<stop offset="0.5735" stop-color="#C42C23" stop-opacity="0.574"/>
<stop offset="0.8721" stop-color="#AF2B2C" stop-opacity="0.872"/>
<stop offset="1" stop-color="#A42B31"/>
</linearGradient>
<linearGradient id="paint3_linear" x1="111.382" y1="100.502" x2="111.382" y2="122.779" gradientUnits="userSpaceOnUse">
<stop stop-color="#D52C1C" stop-opacity="0"/>
<stop offset="0.28" stop-color="#D12C1E" stop-opacity="0.28"/>
<stop offset="0.5735" stop-color="#C42C23" stop-opacity="0.574"/>
<stop offset="0.8721" stop-color="#AF2B2C" stop-opacity="0.872"/>
<stop offset="1" stop-color="#A42B31"/>
</linearGradient>
<linearGradient id="paint4_linear" x1="28.6176" y1="100.502" x2="28.6176" y2="122.779" gradientUnits="userSpaceOnUse">
<stop stop-color="#D52C1C" stop-opacity="0"/>
<stop offset="0.28" stop-color="#D12C1E" stop-opacity="0.28"/>
<stop offset="0.5735" stop-color="#C42C23" stop-opacity="0.574"/>
<stop offset="0.8721" stop-color="#AF2B2C" stop-opacity="0.872"/>
<stop offset="1" stop-color="#A42B31"/>
</linearGradient>
<linearGradient id="paint5_linear" x1="70" y1="88.477" x2="70" y2="109.523" gradientUnits="userSpaceOnUse">
<stop stop-color="#EEF4FF"/>
<stop offset="1" stop-color="#CFE7FD"/>
</linearGradient>
<linearGradient id="paint6_linear" x1="70" y1="94.1503" x2="70" y2="130.112" gradientUnits="userSpaceOnUse">
<stop stop-color="#8AAADC" stop-opacity="0"/>
<stop offset="1" stop-color="#8AAADC"/>
</linearGradient>
<linearGradient id="paint7_linear" x1="86.6078" y1="100.514" x2="66.9798" y2="100.514" gradientUnits="userSpaceOnUse">
<stop stop-color="#8AAADC" stop-opacity="0"/>
<stop offset="1" stop-color="#8AAADC"/>
</linearGradient>
<linearGradient id="paint8_linear" x1="-8.69623" y1="15.1013" x2="74.8684" y2="98.666" gradientUnits="userSpaceOnUse">
<stop stop-color="#EEF4FF"/>
<stop offset="1" stop-color="#CFE7FD"/>
</linearGradient>
<linearGradient id="paint9_linear" x1="17.0965" y1="72.6682" x2="78.2375" y2="133.809" gradientUnits="userSpaceOnUse">
<stop stop-color="#EEF4FF"/>
<stop offset="1" stop-color="#CFE7FD"/>
</linearGradient>
<linearGradient id="paint10_linear" x1="38.8119" y1="50.9527" x2="99.9532" y2="112.094" gradientUnits="userSpaceOnUse">
<stop stop-color="#EEF4FF"/>
<stop offset="1" stop-color="#CFE7FD"/>
</linearGradient>
<linearGradient id="paint11_linear" x1="69.0087" y1="32.8937" x2="130.199" y2="94.0835" gradientUnits="userSpaceOnUse">
<stop stop-color="#EEF4FF"/>
<stop offset="1" stop-color="#CFE7FD"/>
</linearGradient>
<linearGradient id="paint12_linear" x1="129.691" y1="61.7259" x2="75.6129" y2="23.9808" gradientUnits="userSpaceOnUse">
<stop stop-color="#8AAADC" stop-opacity="0"/>
<stop offset="1" stop-color="#8AAADC"/>
</linearGradient>
<linearGradient id="paint13_linear" x1="77.0354" y1="20.2259" x2="99.2161" y2="42.4069" gradientUnits="userSpaceOnUse">
<stop stop-color="#DC4955"/>
<stop offset="1" stop-color="#C4237C"/>
</linearGradient>
<linearGradient id="paint14_linear" x1="90.3137" y1="33.2093" x2="90.3137" y2="50.7798" gradientUnits="userSpaceOnUse">
<stop stop-color="#8A1958" stop-opacity="0"/>
<stop offset="1" stop-color="#8A1958"/>
</linearGradient>
<clipPath id="clip0">
<rect width="140" height="140" fill="white"/>
</clipPath>
</defs>
</svg>
