<svg width="74" height="74" viewBox="0 0 74 74" fill="none" xmlns="http://www.w3.org/2000/svg">
<path d="M7.29794 66.6127L0.216906 26.4103C0.148533 26.0223 0.105911 25.6302 0.08932 25.2365C-0.0159144 20.6786 3.25687 16.7415 7.75725 16.012L21.4217 13.6006L21.0517 66.6127H7.29794Z" fill="#35495E"/>
<path d="M59.889 64.8521C59.652 65.8358 58.8562 66.5866 57.8603 66.7659L17.6452 73.8597C15.1104 74.3022 12.5078 73.6317 10.5024 72.0195C8.49693 70.4073 7.28286 68.0096 7.17036 65.439C7.06986 61.0812 10.0701 57.2627 14.3279 56.3293L25.5938 59.4935H25.581L15.4379 61.2924C14.3067 61.4913 13.3242 62.1868 12.7607 63.1877C12.1973 64.1886 12.1122 65.3893 12.529 66.4597C13.2506 68.1835 15.0835 69.1639 16.9179 68.8072L47.6535 63.3848L59.889 64.8521Z" fill="#2C3E50"/>
<path d="M25.5811 59.4934L15.438 61.2924C14.3067 61.4912 13.3242 62.1867 12.7607 63.1876C12.1973 64.1885 12.1122 65.3893 12.529 66.4596C13.2507 68.1835 15.0835 69.1638 16.918 68.8072L47.6535 63.3848L25.5811 59.4934Z" fill="#F9EAB0"/>
<path d="M16.3642 42.3209L23.4542 2.11342C23.708 0.731343 25.0249 -0.190546 26.4103 0.0439681L66.3155 7.08035C70.8191 7.81035 74.0944 11.75 73.9898 16.3112C73.9724 16.7031 73.9298 17.0935 73.8622 17.4799L66.7722 57.6874L16.3642 42.3209Z" fill="#E64C3C"/>
<path d="M57.9726 13.3634C57.8978 13.3633 57.8231 13.3569 57.7494 13.3442L28.8498 8.24843C28.1976 8.08759 27.7819 7.44862 27.899 6.7872C28.0161 6.12577 28.6261 5.66845 29.2938 5.74136L58.1921 10.8308C58.8438 10.945 59.3001 11.5384 59.243 12.1976C59.1859 12.8569 58.6343 13.363 57.9726 13.3634Z" fill="#3F5C6C"/>
<path d="M51.8383 18.7552C51.7634 18.7553 51.6886 18.7484 51.615 18.7347L32.768 15.4162C32.0899 15.2787 31.645 14.6258 31.765 13.9444C31.8851 13.263 32.5264 12.8015 33.2107 12.9041L52.059 16.2213C52.7146 16.3321 53.1752 16.9277 53.1175 17.59C53.0598 18.2524 52.5031 18.7594 51.8383 18.7552Z" fill="#3F5C6C"/>
<path d="M54.502 24.4537L28.1108 19.7917C27.4167 19.6691 26.7547 20.1324 26.6321 20.8265L24.4121 33.3937C24.2895 34.0878 24.7527 34.7498 25.4468 34.8724L51.838 39.5344C52.5321 39.657 53.1941 39.1938 53.3167 38.4997L55.5367 25.9325C55.6593 25.2384 55.1961 24.5763 54.502 24.4537Z" fill="#ECF0F1"/>
<path d="M73.9872 16.3055C73.972 16.6993 73.9294 17.0915 73.8596 17.4793L66.7659 57.6817L56.929 54.6834L62.6321 22.3531L63.9845 14.7234L65.3624 6.91516L66.3193 7.08102C70.8176 7.81406 74.0885 11.749 73.9872 16.3055Z" fill="#C03A2B"/>
<path d="M59.2255 47.2835L19.3165 40.2535C19.169 40.2281 19.0197 40.2152 18.87 40.2152C17.5476 40.2185 16.4469 41.2316 16.334 42.5492C16.2212 43.8667 17.1336 45.0522 18.4362 45.2804L58.6386 52.3614C59.7689 52.5661 60.7484 53.2654 61.3089 54.268C61.8695 55.2706 61.9524 56.4713 61.5348 57.5414C60.8171 59.2614 58.987 60.2378 57.1586 59.8762L17.1093 52.8207C16.9618 52.7953 16.8124 52.7825 16.6627 52.7824C15.3379 52.7792 14.2309 53.7903 14.1146 55.11C13.9982 56.4298 14.9112 57.619 16.2162 57.8476L56.4314 64.9286C58.9643 65.3727 61.5658 64.7045 63.5712 63.0948C65.5767 61.4851 66.7918 59.0897 66.9062 56.5207C67.0063 51.9576 63.7303 48.0176 59.2255 47.2835Z" fill="#802F34"/>
<path d="M61.5348 57.5414C60.8171 59.2615 58.987 60.2379 57.1586 59.8762L17.1093 52.8207L18.4362 45.2804L58.6386 52.3614C59.7689 52.5661 60.7484 53.2655 61.3089 54.268C61.8695 55.2706 61.9524 56.4713 61.5348 57.5414Z" fill="#F9EAB0"/>
</svg>
