<svg width="74" height="74" viewBox="0 0 74 74" fill="none" xmlns="http://www.w3.org/2000/svg">
<path d="M16.1875 64.75H46.25L57.8125 53.1875V9.25C57.8125 6.69584 55.7417 4.625 53.1875 4.625H16.1875C13.6333 4.625 11.5625 6.69584 11.5625 9.25V60.125C11.5625 62.6792 13.6333 64.75 16.1875 64.75Z" fill="#FAB400"/>
<path d="M52.0312 37H17.3438C16.7055 37 16.1875 36.482 16.1875 35.8438C16.1875 35.2055 16.7055 34.6875 17.3438 34.6875H52.0312C52.6695 34.6875 53.1875 35.2055 53.1875 35.8438C53.1875 36.482 52.6695 37 52.0312 37Z" fill="#DC9600"/>
<path d="M52.0312 41.625H17.3438C16.7055 41.625 16.1875 41.107 16.1875 40.4688C16.1875 39.8305 16.7055 39.3125 17.3438 39.3125H52.0312C52.6695 39.3125 53.1875 39.8305 53.1875 40.4688C53.1875 41.107 52.6695 41.625 52.0312 41.625Z" fill="#DC9600"/>
<path d="M52.0312 46.25H17.3438C16.7055 46.25 16.1875 45.732 16.1875 45.0938C16.1875 44.4555 16.7055 43.9375 17.3438 43.9375H52.0312C52.6695 43.9375 53.1875 44.4555 53.1875 45.0938C53.1875 45.732 52.6695 46.25 52.0312 46.25Z" fill="#DC9600"/>
<path d="M52.0312 50.875H17.3438C16.7055 50.875 16.1875 50.357 16.1875 49.7188C16.1875 49.0805 16.7055 48.5625 17.3438 48.5625H52.0312C52.6695 48.5625 53.1875 49.0805 53.1875 49.7188C53.1875 50.357 52.6695 50.875 52.0312 50.875Z" fill="#DC9600"/>
<path d="M20.8125 18.5H16.1875C15.5493 18.5 15.0312 19.018 15.0312 19.6562C15.0312 20.2945 15.5493 20.8125 16.1875 20.8125H20.8125C21.4496 20.8125 21.9688 21.3317 21.9688 21.9688V23.125H18.5C16.5876 23.125 15.0312 24.6813 15.0312 26.5938C15.0312 28.5062 16.5876 30.0625 18.5 30.0625H23.125C23.7633 30.0625 24.2812 29.5445 24.2812 28.9062V21.9688C24.2812 20.0563 22.7249 18.5 20.8125 18.5ZM21.9688 27.75H18.5C17.8629 27.75 17.3438 27.2308 17.3438 26.5938C17.3438 25.9567 17.8629 25.4375 18.5 25.4375H21.9688V27.75Z" fill="#DC9600"/>
<path d="M34.6875 23.125H33.5312V21.9688C33.5312 21.3305 33.0132 20.8125 32.375 20.8125C31.7368 20.8125 31.2188 21.3305 31.2188 21.9688V23.125H30.0625C29.4243 23.125 28.9062 23.643 28.9062 24.2812C28.9062 24.9195 29.4243 25.4375 30.0625 25.4375H31.2188V26.5938C31.2188 27.232 31.7368 27.75 32.375 27.75C33.0132 27.75 33.5312 27.232 33.5312 26.5938V25.4375H34.6875C35.3257 25.4375 35.8438 24.9195 35.8438 24.2812C35.8438 23.643 35.3257 23.125 34.6875 23.125Z" fill="#DC9600"/>
<path d="M41.625 18.5H40.4688V15.0312C40.4688 14.393 39.9519 13.875 39.3125 13.875C38.6731 13.875 38.1562 14.393 38.1562 15.0312V28.9062C38.1562 29.5445 38.6731 30.0625 39.3125 30.0625H41.625C44.8128 30.0625 47.4062 27.469 47.4062 24.2812C47.4062 21.0935 44.8128 18.5 41.625 18.5ZM41.625 27.75H40.4688V20.8125H41.625C43.5374 20.8125 45.0938 22.3688 45.0938 24.2812C45.0938 26.1937 43.5374 27.75 41.625 27.75Z" fill="#DC9600"/>
<path d="M31.2188 18.5C31.2188 17.8618 30.7007 17.3438 30.0625 17.3438H26.6261C26.7047 17.0165 26.9221 16.7379 27.2332 16.5829L29.9411 15.229C30.7285 14.8347 31.2188 14.0427 31.2188 13.1604V12.7188C31.2188 11.4434 30.1816 10.4062 28.9062 10.4062H25.4375C24.7993 10.4062 24.2812 10.9243 24.2812 11.5625C24.2812 12.2007 24.7993 12.7188 25.4375 12.7188H28.9062V13.1604L26.1983 14.5144C25.0155 15.1053 24.2812 16.295 24.2812 17.6166V18.5C24.2812 19.1383 24.7993 19.6562 25.4375 19.6562H30.0625C30.7007 19.6562 31.2188 19.1383 31.2188 18.5Z" fill="#DC9600"/>
<path d="M50.3582 16.5829L53.0661 15.229C53.8535 14.8347 54.3438 14.0427 54.3438 13.1604V12.7188C54.3438 11.4434 53.3066 10.4062 52.0312 10.4062H48.5625C47.9231 10.4062 47.4062 10.9243 47.4062 11.5625C47.4062 12.2007 47.9231 12.7188 48.5625 12.7188H52.0312V13.1604L49.3233 14.5144C48.1416 15.1053 47.4062 16.2939 47.4062 17.6166V18.5C47.4062 19.1383 47.9231 19.6562 48.5625 19.6562H53.1875C53.8269 19.6562 54.3438 19.1383 54.3438 18.5C54.3438 17.8618 53.8269 17.3438 53.1875 17.3438H49.75C49.8298 17.0165 50.0471 16.7379 50.3582 16.5829Z" fill="#DC9600"/>
<path d="M57.8125 53.1875H50.875C48.3208 53.1875 46.25 55.2583 46.25 57.8125V64.75L57.8125 53.1875Z" fill="#DC9600"/>
<path d="M60.125 23.125H69.375V60.125H60.125V23.125Z" fill="#C80A50"/>
<path d="M69.375 60.125H60.125L62.4375 64.75H67.0625L69.375 60.125Z" fill="#F0C8A0"/>
<path d="M62.4375 64.75L63.7163 67.3065C64.143 68.1586 65.3582 68.1586 65.7848 67.3065L67.0625 64.75H62.4375Z" fill="#0A5078"/>
<path d="M60.125 20.8125H69.375V23.125H60.125V20.8125Z" fill="#F0F0F0"/>
<path d="M67.0625 13.875H62.4375C61.1598 13.875 60.125 14.9098 60.125 16.1875V20.8125H69.375V16.1875C69.375 14.9098 68.3402 13.875 67.0625 13.875Z" fill="#0A5078"/>
<path d="M33.5312 27.75H11.5625V60.125C11.5625 62.6792 13.6333 64.75 16.1875 64.75H35.8438V30.0625C35.8438 28.7848 34.8089 27.75 33.5312 27.75Z" fill="#DC9600"/>
<path d="M32.375 27.75H6.9375C5.65984 27.75 4.625 28.7848 4.625 30.0625V67.0625C4.625 68.3402 5.65984 69.375 6.9375 69.375H32.375C33.6527 69.375 34.6875 68.3402 34.6875 67.0625V30.0625C34.6875 28.7848 33.6527 27.75 32.375 27.75Z" fill="#00A0C8"/>
<path d="M31.2188 30.0625H8.09375C7.4555 30.0625 6.9375 30.5805 6.9375 31.2188V38.1562C6.9375 38.7945 7.4555 39.3125 8.09375 39.3125H31.2188C31.857 39.3125 32.375 38.7945 32.375 38.1562V31.2188C32.375 30.5805 31.857 30.0625 31.2188 30.0625Z" fill="#0A5078"/>
<path d="M31.2188 30.0625H8.09375C7.4555 30.0625 6.9375 30.5805 6.9375 31.2188V32.375C6.9375 31.7368 7.4555 31.2188 8.09375 31.2188H31.2188C31.857 31.2188 32.375 31.7368 32.375 32.375V31.2188C32.375 30.5805 31.857 30.0625 31.2188 30.0625Z" fill="#00325A"/>
<path d="M10.4062 42.7812H8.09375C7.4555 42.7812 6.9375 43.2993 6.9375 43.9375V46.25C6.9375 46.8882 7.4555 47.4062 8.09375 47.4062H10.4062C11.0445 47.4062 11.5625 46.8882 11.5625 46.25V43.9375C11.5625 43.2993 11.0445 42.7812 10.4062 42.7812Z" fill="#0082AA"/>
<path d="M17.3438 42.7812H15.0312C14.393 42.7812 13.875 43.2993 13.875 43.9375V46.25C13.875 46.8882 14.393 47.4062 15.0312 47.4062H17.3438C17.982 47.4062 18.5 46.8882 18.5 46.25V43.9375C18.5 43.2993 17.982 42.7812 17.3438 42.7812Z" fill="#0082AA"/>
<path d="M24.2812 42.7812H21.9688C21.3305 42.7812 20.8125 43.2993 20.8125 43.9375V46.25C20.8125 46.8882 21.3305 47.4062 21.9688 47.4062H24.2812C24.9195 47.4062 25.4375 46.8882 25.4375 46.25V43.9375C25.4375 43.2993 24.9195 42.7812 24.2812 42.7812Z" fill="#0082AA"/>
<path d="M31.2188 42.7812H28.9062C28.268 42.7812 27.75 43.2993 27.75 43.9375V46.25C27.75 46.8882 28.268 47.4062 28.9062 47.4062H31.2188C31.857 47.4062 32.375 46.8882 32.375 46.25V43.9375C32.375 43.2993 31.857 42.7812 31.2188 42.7812Z" fill="#0082AA"/>
<path d="M10.4062 49.7188H8.09375C7.4555 49.7188 6.9375 50.2368 6.9375 50.875V53.1875C6.9375 53.8257 7.4555 54.3438 8.09375 54.3438H10.4062C11.0445 54.3438 11.5625 53.8257 11.5625 53.1875V50.875C11.5625 50.2368 11.0445 49.7188 10.4062 49.7188Z" fill="#0082AA"/>
<path d="M17.3438 49.7188H15.0312C14.393 49.7188 13.875 50.2368 13.875 50.875V53.1875C13.875 53.8257 14.393 54.3438 15.0312 54.3438H17.3438C17.982 54.3438 18.5 53.8257 18.5 53.1875V50.875C18.5 50.2368 17.982 49.7188 17.3438 49.7188Z" fill="#0082AA"/>
<path d="M24.2812 49.7188H21.9688C21.3305 49.7188 20.8125 50.2368 20.8125 50.875V53.1875C20.8125 53.8257 21.3305 54.3438 21.9688 54.3438H24.2812C24.9195 54.3438 25.4375 53.8257 25.4375 53.1875V50.875C25.4375 50.2368 24.9195 49.7188 24.2812 49.7188Z" fill="#0082AA"/>
<path d="M31.2188 49.7188H28.9062C28.268 49.7188 27.75 50.2368 27.75 50.875V53.1875C27.75 53.8257 28.268 54.3438 28.9062 54.3438H31.2188C31.857 54.3438 32.375 53.8257 32.375 53.1875V50.875C32.375 50.2368 31.857 49.7188 31.2188 49.7188Z" fill="#0082AA"/>
<path d="M10.4062 56.6562H8.09375C7.4555 56.6562 6.9375 57.1743 6.9375 57.8125V60.125C6.9375 60.7632 7.4555 61.2812 8.09375 61.2812H10.4062C11.0445 61.2812 11.5625 60.7632 11.5625 60.125V57.8125C11.5625 57.1743 11.0445 56.6562 10.4062 56.6562Z" fill="#0082AA"/>
<path d="M17.3438 56.6562H15.0312C14.393 56.6562 13.875 57.1743 13.875 57.8125V60.125C13.875 60.7632 14.393 61.2812 15.0312 61.2812H17.3438C17.982 61.2812 18.5 60.7632 18.5 60.125V57.8125C18.5 57.1743 17.982 56.6562 17.3438 56.6562Z" fill="#0082AA"/>
<path d="M24.2812 56.6562H21.9688C21.3305 56.6562 20.8125 57.1743 20.8125 57.8125V60.125C20.8125 60.7632 21.3305 61.2812 21.9688 61.2812H24.2812C24.9195 61.2812 25.4375 60.7632 25.4375 60.125V57.8125C25.4375 57.1743 24.9195 56.6562 24.2812 56.6562Z" fill="#0082AA"/>
<path d="M31.2188 56.6562H28.9062C28.268 56.6562 27.75 57.1743 27.75 57.8125V67.0625C27.75 67.7008 28.268 68.2188 28.9062 68.2188H31.2188C31.857 68.2188 32.375 67.7008 32.375 67.0625V57.8125C32.375 57.1743 31.857 56.6562 31.2188 56.6562Z" fill="#0082AA"/>
<path d="M10.4062 63.5938H8.09375C7.4555 63.5938 6.9375 64.1118 6.9375 64.75V67.0625C6.9375 67.7007 7.4555 68.2188 8.09375 68.2188H10.4062C11.0445 68.2188 11.5625 67.7007 11.5625 67.0625V64.75C11.5625 64.1118 11.0445 63.5938 10.4062 63.5938Z" fill="#0082AA"/>
<path d="M17.3438 63.5938H15.0312C14.393 63.5938 13.875 64.1118 13.875 64.75V67.0625C13.875 67.7007 14.393 68.2188 15.0312 68.2188H17.3438C17.982 68.2188 18.5 67.7007 18.5 67.0625V64.75C18.5 64.1118 17.982 63.5938 17.3438 63.5938Z" fill="#0082AA"/>
<path d="M24.2812 63.5938H21.9688C21.3305 63.5938 20.8125 64.1118 20.8125 64.75V67.0625C20.8125 67.7007 21.3305 68.2188 21.9688 68.2188H24.2812C24.9195 68.2188 25.4375 67.7007 25.4375 67.0625V64.75C25.4375 64.1118 24.9195 63.5938 24.2812 63.5938Z" fill="#0082AA"/>
<path d="M10.4062 41.625H8.09375C7.4555 41.625 6.9375 42.143 6.9375 42.7812V45.0938C6.9375 45.732 7.4555 46.25 8.09375 46.25H10.4062C11.0445 46.25 11.5625 45.732 11.5625 45.0938V42.7812C11.5625 42.143 11.0445 41.625 10.4062 41.625Z" fill="#FAB400"/>
<path d="M17.3438 41.625H15.0312C14.393 41.625 13.875 42.143 13.875 42.7812V45.0938C13.875 45.732 14.393 46.25 15.0312 46.25H17.3438C17.982 46.25 18.5 45.732 18.5 45.0938V42.7812C18.5 42.143 17.982 41.625 17.3438 41.625Z" fill="#FAB400"/>
<path d="M24.2812 41.625H21.9688C21.3305 41.625 20.8125 42.143 20.8125 42.7812V45.0938C20.8125 45.732 21.3305 46.25 21.9688 46.25H24.2812C24.9195 46.25 25.4375 45.732 25.4375 45.0938V42.7812C25.4375 42.143 24.9195 41.625 24.2812 41.625Z" fill="#FAB400"/>
<path d="M31.2188 41.625H28.9062C28.268 41.625 27.75 42.143 27.75 42.7812V45.0938C27.75 45.732 28.268 46.25 28.9062 46.25H31.2188C31.857 46.25 32.375 45.732 32.375 45.0938V42.7812C32.375 42.143 31.857 41.625 31.2188 41.625Z" fill="#FAB400"/>
<path d="M10.4062 48.5625H8.09375C7.4555 48.5625 6.9375 49.0805 6.9375 49.7188V52.0312C6.9375 52.6695 7.4555 53.1875 8.09375 53.1875H10.4062C11.0445 53.1875 11.5625 52.6695 11.5625 52.0312V49.7188C11.5625 49.0805 11.0445 48.5625 10.4062 48.5625Z" fill="#F0F0F0"/>
<path d="M17.3438 48.5625H15.0312C14.393 48.5625 13.875 49.0805 13.875 49.7188V52.0312C13.875 52.6695 14.393 53.1875 15.0312 53.1875H17.3438C17.982 53.1875 18.5 52.6695 18.5 52.0312V49.7188C18.5 49.0805 17.982 48.5625 17.3438 48.5625Z" fill="#F0F0F0"/>
<path d="M24.2812 48.5625H21.9688C21.3305 48.5625 20.8125 49.0805 20.8125 49.7188V52.0312C20.8125 52.6695 21.3305 53.1875 21.9688 53.1875H24.2812C24.9195 53.1875 25.4375 52.6695 25.4375 52.0312V49.7188C25.4375 49.0805 24.9195 48.5625 24.2812 48.5625Z" fill="#F0F0F0"/>
<path d="M31.2188 48.5625H28.9062C28.268 48.5625 27.75 49.0805 27.75 49.7188V52.0312C27.75 52.6695 28.268 53.1875 28.9062 53.1875H31.2188C31.857 53.1875 32.375 52.6695 32.375 52.0312V49.7188C32.375 49.0805 31.857 48.5625 31.2188 48.5625Z" fill="#F0F0F0"/>
<path d="M10.4062 55.5H8.09375C7.4555 55.5 6.9375 56.018 6.9375 56.6562V58.9688C6.9375 59.607 7.4555 60.125 8.09375 60.125H10.4062C11.0445 60.125 11.5625 59.607 11.5625 58.9688V56.6562C11.5625 56.018 11.0445 55.5 10.4062 55.5Z" fill="#F0F0F0"/>
<path d="M17.3438 55.5H15.0312C14.393 55.5 13.875 56.018 13.875 56.6562V58.9688C13.875 59.607 14.393 60.125 15.0312 60.125H17.3438C17.982 60.125 18.5 59.607 18.5 58.9688V56.6562C18.5 56.018 17.982 55.5 17.3438 55.5Z" fill="#F0F0F0"/>
<path d="M24.2812 55.5H21.9688C21.3305 55.5 20.8125 56.018 20.8125 56.6562V58.9688C20.8125 59.607 21.3305 60.125 21.9688 60.125H24.2812C24.9195 60.125 25.4375 59.607 25.4375 58.9688V56.6562C25.4375 56.018 24.9195 55.5 24.2812 55.5Z" fill="#F0F0F0"/>
<path d="M31.2188 55.5H28.9062C28.268 55.5 27.75 56.018 27.75 56.6562V65.9062C27.75 66.5445 28.268 67.0625 28.9062 67.0625H31.2188C31.857 67.0625 32.375 66.5445 32.375 65.9062V56.6562C32.375 56.018 31.857 55.5 31.2188 55.5Z" fill="#C80A50"/>
<path d="M10.4062 62.4375H8.09375C7.4555 62.4375 6.9375 62.9555 6.9375 63.5938V65.9062C6.9375 66.5445 7.4555 67.0625 8.09375 67.0625H10.4062C11.0445 67.0625 11.5625 66.5445 11.5625 65.9062V63.5938C11.5625 62.9555 11.0445 62.4375 10.4062 62.4375Z" fill="#F0F0F0"/>
<path d="M17.3438 62.4375H15.0312C14.393 62.4375 13.875 62.9555 13.875 63.5938V65.9062C13.875 66.5445 14.393 67.0625 15.0312 67.0625H17.3438C17.982 67.0625 18.5 66.5445 18.5 65.9062V63.5938C18.5 62.9555 17.982 62.4375 17.3438 62.4375Z" fill="#F0F0F0"/>
<path d="M24.2812 62.4375H21.9688C21.3305 62.4375 20.8125 62.9555 20.8125 63.5938V65.9062C20.8125 66.5445 21.3305 67.0625 21.9688 67.0625H24.2812C24.9195 67.0625 25.4375 66.5445 25.4375 65.9062V63.5938C25.4375 62.9555 24.9195 62.4375 24.2812 62.4375Z" fill="#F0F0F0"/>
</svg>
