<svg width="140" height="140" viewBox="0 0 140 140" fill="none" xmlns="http://www.w3.org/2000/svg">
<path d="M0 115.675V12.6492C0 11.0934 1.26113 9.83228 2.8169 9.83228H137.183C138.739 9.83228 140 11.0934 140 12.6492V115.674C140 117.23 138.739 118.491 137.183 118.491H2.8169C1.26113 118.491 0 117.23 0 115.675Z" fill="#FED23A"/>
<path d="M8.64197 109.87H131.358V18.4536H8.64197V109.87Z" fill="#FFF9E9"/>
<path d="M120.09 18.4536H131.358V109.87H120.09V18.4536Z" fill="#FFF4D6"/>
<path d="M25.2853 38.251H98.1155C99.2825 38.251 100.228 37.3051 100.228 36.1383C100.228 34.9715 99.2825 34.0256 98.1155 34.0256H25.2853C24.1183 34.0256 23.1727 34.9715 23.1727 36.1383C23.1727 37.3051 24.1183 38.251 25.2853 38.251Z" fill="#FAE19E"/>
<path d="M114.715 46.8755H25.2853C24.1183 46.8755 23.1727 47.8214 23.1727 48.9882C23.1727 50.1549 24.1183 51.1008 25.2853 51.1008H114.715C115.882 51.1008 116.828 50.1549 116.828 48.9882C116.828 47.8214 115.882 46.8755 114.715 46.8755Z" fill="#FAE19E"/>
<path d="M76.0949 59.7256H25.2853C24.1183 59.7256 23.1727 60.6715 23.1727 61.8383C23.1727 63.005 24.1183 63.9509 25.2853 63.9509H76.0949C77.262 63.9509 78.2076 63.005 78.2076 61.8383C78.2076 60.6715 77.2617 59.7256 76.0949 59.7256Z" fill="#FAE19E"/>
<path d="M61.2228 91.2625C57.6369 91.2724 54.051 91.2808 50.4651 91.2867C49.3132 91.2887 48.1611 91.2901 47.0093 91.291C46.1279 91.2915 45.1766 91.4473 44.4318 90.8783C43.5983 90.2417 43.3115 89.3425 43.1208 88.3521C42.7076 86.207 39.6135 86.4803 39.0465 88.3521C38.7955 89.1811 37.5279 91.5543 36.4206 91.3603C35.8338 91.2574 35.5775 90.3524 35.3606 89.8836C34.9383 88.9713 34.6307 88.0042 34.3673 87.0352C33.2552 82.9411 33.0332 78.6665 32.3375 74.4952C31.9341 72.0763 28.247 72.7603 28.1876 75.0569C27.9983 82.3727 26.8022 89.5882 24.1977 96.4453C23.2313 98.9898 27.3144 100.09 28.2721 97.5687C29.2763 94.9248 30.0735 92.2175 30.6921 89.4698C31.0239 90.471 31.4197 91.4529 31.9028 92.4082C33.1366 94.8465 35.6529 96.289 38.3453 95.2045C39.3062 94.8174 40.1828 94.1408 40.929 93.3174C41.0344 93.4389 41.1406 93.5589 41.2515 93.671C43.3006 95.7394 45.9958 95.518 48.676 95.5146C52.8583 95.5093 57.0406 95.4994 61.2231 95.4879C63.9414 95.4803 63.9465 91.2549 61.2228 91.2625Z" fill="#54B1FF"/>
<path d="M107.997 130.167L101.94 127.35L95.884 130.167V93.8293H107.997V130.167Z" fill="#FFABE7"/>
<path d="M101.94 100.854C99.8031 100.854 98.4037 97.2163 96.5453 96.4442C94.6189 95.6439 91.0685 97.1946 89.6166 95.74C88.1648 94.2856 89.7127 90.7287 88.9138 88.7988C88.1431 86.9371 84.5121 85.5352 84.5121 83.394C84.5121 81.2532 88.1431 79.8512 88.9138 77.9893C89.7127 76.0594 88.1648 72.5025 89.6166 71.0481C91.0685 69.5938 94.6189 71.1445 96.5451 70.3442C98.4034 69.5721 99.8028 65.9343 101.94 65.9343C104.077 65.9343 105.477 69.5721 107.335 70.3442C109.261 71.1445 112.812 69.5938 114.264 71.0484C115.715 72.5028 114.168 76.0597 114.966 77.9895C115.737 79.8512 119.368 81.2532 119.368 83.3943C119.368 85.5352 115.737 86.9371 114.966 88.7991C114.168 90.729 115.715 94.2859 114.264 95.7402C112.812 97.1946 109.261 95.6439 107.335 96.4442C105.477 97.2163 104.077 100.854 101.94 100.854Z" fill="#FF6ED4"/>
<path d="M114.966 77.9895C114.168 76.0597 115.715 72.5028 114.264 71.0484C112.812 69.594 109.261 71.1445 107.335 70.3442C105.477 69.5721 104.077 65.9343 101.94 65.9343C99.8028 65.9343 98.4034 69.5721 96.5451 70.3442C96.4682 70.376 96.3879 70.4031 96.3062 70.4278C98.2744 71.0245 101.602 69.6518 102.996 71.0484C104.448 72.5028 102.9 76.0597 103.699 77.9895C104.469 79.8512 108.1 81.2532 108.1 83.3943C108.1 85.5354 104.469 86.9374 103.699 88.7991C102.9 90.729 104.448 94.2859 102.996 95.7402C101.602 97.1366 98.2744 95.7642 96.3062 96.3608C96.3879 96.3856 96.4682 96.4126 96.5451 96.4445C98.4034 97.2166 99.8028 100.854 101.94 100.854C104.077 100.854 105.476 97.2166 107.335 96.4445C109.261 95.6442 112.812 97.1949 114.263 95.7402C115.715 94.2859 114.167 90.729 114.966 88.7991C115.737 86.9374 119.368 85.5354 119.368 83.3943C119.368 81.2532 115.737 79.8512 114.966 77.9895Z" fill="#FF5CCF"/>
<path d="M101.94 89.5334C105.331 89.5334 108.079 86.7848 108.079 83.3943C108.079 80.0037 105.331 77.2551 101.94 77.2551C98.5497 77.2551 95.8011 80.0037 95.8011 83.3943C95.8011 86.7848 98.5497 89.5334 101.94 89.5334Z" fill="#FFABE7"/>
</svg>
