<svg width="82" height="78" viewBox="0 0 82 78" fill="none" xmlns="http://www.w3.org/2000/svg">
<g clip-path="url(#clip0)">
<path d="M67.0922 32.0702V16.6359H46.9329V32.0702C38.2562 35.7532 32.2068 44.0447 32.2068 53.6834C32.2068 66.7439 43.3124 77.3312 57.0122 77.3312C70.712 77.3312 81.8182 66.7439 81.8182 53.6834C81.8182 44.0447 75.7682 35.7532 67.0922 32.0702Z" fill="#C9FFF7"/>
<path d="M76.7982 53.6839C76.7982 64.0849 67.923 72.5454 57.0116 72.5454C53.4223 72.5454 50.054 71.6301 47.1495 70.0299C41.2225 66.7694 37.2268 60.6631 37.2268 53.6839C37.2268 48.4661 39.494 43.5834 43.3055 40.0848H70.7189C74.531 43.5834 76.7982 48.4661 76.7982 53.6839Z" fill="#F7D360"/>
<path d="M51.4647 32.0708V27.7992C51.4647 25.4849 53.4323 23.6092 55.8593 23.6092H67.0922V19.0287L63.0946 15.5605L59.33 14.6036L46.9335 19.0282V32.0708C38.2556 35.7538 32.2068 44.0441 32.2068 53.684C32.2068 66.6879 43.2169 77.2401 56.8374 77.3294C49.378 77.1651 43.3611 66.6415 43.3611 53.684C43.3611 44.0441 46.6907 35.7538 51.4647 32.0708Z" fill="#72CEC0"/>
<path d="M47.1495 70.0299C41.2225 66.7694 37.2268 60.6631 37.2268 53.6839C37.2268 48.4661 39.494 43.5834 43.3055 40.0848H45.8442C44.2793 43.9309 43.3611 48.6208 43.3611 53.6839C43.3611 60.0246 44.8018 65.7821 47.1495 70.0299Z" fill="#E58E13"/>
<path d="M48.5034 67.048L32.3941 40.4479V26.6852H17.0844V40.4479L0.97505 67.048C-1.79276 71.6183 1.66669 77.3312 7.20293 77.3312H42.2762C47.8118 77.3312 51.2718 71.6183 48.5034 67.048Z" fill="#E6E6E6"/>
<path d="M32.3941 26.6851L27.7068 24.1744L18.7236 24.2637L17.0838 26.6851V40.4472L0.975078 67.0485C-1.7946 71.6188 1.66609 77.3311 7.20108 77.3311H16.776C14.2623 77.3311 12.6911 71.6188 13.9477 67.0485L21.2636 40.4472V33.3817C21.2636 31.9297 22.4983 30.7532 24.0214 30.7532H32.3941V26.6851Z" fill="#CCCCCC"/>
<path d="M37.9447 23.5745C37.9447 25.2926 36.484 26.6851 34.6819 26.6851H14.796C13.8959 26.6851 13.0794 26.3376 12.4889 25.774C11.8983 25.211 11.5332 24.4327 11.5332 23.5745C11.5332 21.8565 12.9939 20.464 14.796 20.464H34.6819C35.582 20.464 36.3985 20.8115 36.989 21.3745C37.5795 21.938 37.9447 22.7164 37.9447 23.5745Z" fill="#CCCCCC"/>
<path d="M37.9447 23.5745C37.9447 25.2926 36.484 26.6851 34.6819 26.6851H22.7093C21.8073 26.6851 20.9927 26.3376 20.4015 25.774C19.811 25.211 19.4465 24.4327 19.4465 23.5745C19.4465 21.8565 20.9072 20.464 22.7093 20.464H34.6819C35.582 20.464 36.3985 20.8115 36.989 21.3745C37.5796 21.938 37.9447 22.7164 37.9447 23.5745Z" fill="#E6E6E6"/>
<path d="M72.712 15.9176C72.712 17.6356 71.2514 19.0281 69.4492 19.0281H44.8504C43.9484 19.0281 43.1332 18.6806 42.5427 18.1176C41.9522 17.5541 41.587 16.7757 41.587 15.9176C41.587 14.1995 43.0483 12.807 44.8504 12.807H69.4492C70.3494 12.807 71.1658 13.1545 71.7564 13.7181C72.3475 14.2811 72.712 15.0594 72.712 15.9176Z" fill="#72CEC0"/>
<path d="M72.712 15.9176C72.712 17.6356 71.2514 19.0281 69.4492 19.0281H52.4753C51.5752 19.0281 50.7587 18.6806 50.1676 18.1176C49.5771 17.5541 49.2125 16.7757 49.2125 15.9176C49.2125 14.1995 50.6732 12.807 52.4753 12.807H69.4492C70.3493 12.807 71.1658 13.1545 71.7563 13.7181C72.3475 14.2811 72.712 15.0594 72.712 15.9176Z" fill="#C9FFF7"/>
<path d="M44.1557 71.5105C43.9217 71.8979 43.3661 72.5454 42.2768 72.5454H7.20296C6.11182 72.5454 5.55626 71.8979 5.32218 71.5105C5.08809 71.1243 4.77661 70.3412 5.32218 69.4414L17.1606 49.8938H32.3192L44.1557 69.4414C44.7013 70.3412 44.3898 71.1243 44.1557 71.5105Z" fill="#FC5F61"/>
<path d="M13.9477 67.0485C13.4545 68.8433 13.3971 70.8131 13.6618 72.5454H7.20295C6.11181 72.5454 5.55625 71.8979 5.32216 71.5105C5.08808 71.1243 4.77659 70.3412 5.32216 69.4414L17.1606 49.8938H18.6649L13.9477 67.0485Z" fill="#E83842"/>
<path d="M27.4378 63.5322C26.2979 63.5322 25.7555 62.1355 26.6238 61.4267C27.4871 60.7221 28.8423 61.441 28.6793 62.5122C28.5913 63.0918 28.0508 63.5322 27.4378 63.5322Z" fill="#E83842"/>
<path d="M21.9028 14.4834C20.8073 14.4834 20.2442 13.1778 21.0158 12.4399C21.4327 12.0418 22.1088 11.9799 22.5988 12.2917C23.0283 12.5643 23.2424 13.0772 23.1244 13.5563C22.9933 14.0913 22.4802 14.4834 21.9028 14.4834Z" fill="#E83842"/>
<path d="M26.8972 9.93689C25.7617 9.93689 25.2068 8.53485 26.082 7.83025C26.4983 7.49462 27.1057 7.45177 27.5682 7.72968C28.0127 7.99688 28.2393 8.52175 28.1194 9.01033C27.9883 9.54412 27.4752 9.93689 26.8972 9.93689Z" fill="#E83842"/>
<path d="M24.1768 2.9981C23.6288 2.9981 23.1356 2.64699 22.9752 2.1489C22.816 1.652 23.0258 1.09439 23.479 0.806369C24.4103 0.213657 25.6706 1.05155 25.3928 2.09236C25.2524 2.61724 24.7461 2.9981 24.1768 2.9981Z" fill="#E83842"/>
<path d="M68.0316 47.5027C66.9161 47.5027 66.3599 46.1447 67.1827 45.4247C67.9711 44.7349 69.2869 45.2854 69.2869 46.306C69.2869 46.9564 68.7151 47.5027 68.0316 47.5027Z" fill="white"/>
<path d="M68.9055 55.4817C67.8125 55.4817 67.2395 54.1754 68.0185 53.4399C68.408 53.0721 69.0135 52.987 69.4973 53.2316C69.9611 53.4667 70.222 53.9671 70.1471 54.4617C70.0585 55.0419 69.5179 55.4817 68.9055 55.4817Z" fill="white"/>
<path d="M52.5371 64.4896C52.0003 64.4896 51.5147 64.1534 51.3461 63.6684C51.1676 63.1566 51.3842 62.5758 51.8605 62.2854C52.8056 61.7087 54.0465 62.5758 53.7463 63.6107C53.5983 64.1224 53.0952 64.4896 52.5371 64.4896Z" fill="white"/>
<path d="M46.7643 54.4396C45.6301 54.4396 45.0796 53.0453 45.9441 52.339C46.3592 51.9992 46.9672 51.9569 47.431 52.2313C47.8711 52.4925 48.0996 53.0061 47.9922 53.4899C47.8711 54.0362 47.3511 54.4396 46.7643 54.4396Z" fill="white"/>
<path d="M62.0734 51.5683C60.9517 51.5683 60.3961 50.2026 61.2314 49.4867C61.6477 49.1297 62.2707 49.0797 62.7451 49.3623C63.1789 49.6218 63.4043 50.1276 63.305 50.6067C63.1902 51.1589 62.6633 51.5683 62.0734 51.5683Z" fill="white"/>
<path d="M18.655 66.0101C18.1512 66.0101 17.6887 65.7137 17.4952 65.2716C17.2829 64.7848 17.4415 64.1998 17.8772 63.8743C18.7717 63.2072 20.115 63.976 19.8847 65.0478C19.7661 65.6 19.248 66.0101 18.655 66.0101Z" fill="#E83842"/>
<path d="M21.9178 58.2685C21.3928 58.2685 20.9134 57.9466 20.7361 57.4752C20.5476 56.9742 20.7405 56.3946 21.1999 56.0911C22.0932 55.5013 23.346 56.2494 23.1531 57.2771C23.047 57.8424 22.522 58.2685 21.9178 58.2685Z" fill="#E83842"/>
</g>
<defs>
<clipPath id="clip0">
<rect width="81.8182" height="78" fill="white"/>
</clipPath>
</defs>
</svg>
