<svg width="74" height="74" viewBox="0 0 74 74" fill="none" xmlns="http://www.w3.org/2000/svg">
<g clip-path="url(#clip0)">
<path d="M40.2102 51.5892C39.9245 51.5892 39.6383 51.4803 39.4198 51.2618L22.4424 34.2844C22.006 33.848 22.006 33.14 22.4424 32.703C22.8794 32.2666 23.5874 32.2666 24.0238 32.703L41.0012 49.6804C41.4376 50.1168 41.4376 50.8254 41.0012 51.2618C40.7827 51.4803 40.4964 51.5892 40.2102 51.5892Z" fill="#8AC129"/>
<path d="M47.4452 48.7081C47.159 48.7081 46.8727 48.5986 46.6548 48.3807L25.3681 27.0939C24.9311 26.6575 24.9311 25.949 25.3681 25.5126C25.8045 25.0756 26.513 25.0756 26.9494 25.5126L48.2362 46.7987C48.6726 47.2357 48.6726 47.9437 48.2362 48.3807C48.0177 48.5986 47.7314 48.7081 47.4452 48.7081Z" fill="#FF4C4C"/>
<path d="M50.3268 41.4732C50.0406 41.4732 49.7543 41.3642 49.5358 41.1457L32.5585 24.1684C32.1221 23.732 32.1221 23.0234 32.5585 22.587C32.9955 22.15 33.7035 22.15 34.1405 22.587L51.1172 39.5638C51.5542 40.0008 51.5542 40.7088 51.1172 41.1457C50.8987 41.3642 50.6125 41.4732 50.3268 41.4732Z" fill="#8AC129"/>
<path d="M67.368 23.7883C67.0818 23.7883 66.7961 23.6793 66.5776 23.4609L50.4104 7.29424C49.974 6.85726 49.974 6.14928 50.4104 5.71287C50.8474 5.27589 51.5553 5.27589 51.9923 5.71287L68.159 21.8795C68.5959 22.3165 68.5959 23.0244 68.159 23.4609C67.9405 23.6793 67.6542 23.7883 67.368 23.7883Z" fill="#FF4C4C"/>
<path d="M22.526 68.6309C22.2398 68.6309 21.9535 68.5219 21.735 68.3034L5.56785 52.1362C5.13144 51.6998 5.13144 50.9918 5.56785 50.5549C6.00483 50.1184 6.71281 50.1184 7.14979 50.5549L23.317 66.7221C23.7534 67.1585 23.7534 67.867 23.317 68.3034C23.0985 68.5219 22.8122 68.6309 22.526 68.6309Z" fill="#FF4C4C"/>
<path d="M20.4252 46.945C13.5397 45.6431 6.37294 45.4359 0.57757 51.2307C-0.385031 52.1939 -0.385596 53.7549 0.57757 54.7181C1.54074 55.6813 3.10179 55.6807 4.06495 54.7181C8.76392 50.0191 14.745 50.7085 21.6317 52.2233C21.2416 50.4488 20.8125 48.6811 20.4252 46.945Z" fill="#FFBF14"/>
<path d="M20.4252 46.945C19.3994 46.7508 18.3673 46.5814 17.3342 46.4521C17.7079 48.16 18.1172 49.8481 18.5107 51.5977C19.5287 51.7755 20.5698 51.9895 21.6317 52.2232C21.2393 50.4392 20.8137 48.6862 20.4252 46.945Z" fill="#E0A812"/>
<path d="M54.5736 4.20942C55.5367 3.24626 55.5367 1.68521 54.5736 0.72204C53.611 -0.241125 52.0494 -0.240561 51.0868 0.72204C37.3354 14.4734 57.3281 35.0183 46.101 46.2454C40.7799 51.5671 33.8141 49.9784 25.7503 48.1052C26.1624 49.8768 26.5763 51.6614 26.9105 53.4302C34.6226 55.1494 42.9936 56.3276 49.5884 49.7328C63.3742 35.9465 43.3504 15.4326 54.5736 4.20942Z" fill="#FFBF14"/>
<path d="M26.9105 53.4303C27.833 53.6358 28.7646 53.834 29.7012 54.0113C29.3856 52.247 28.9893 50.5002 28.5839 48.7517C27.6557 48.5479 26.7106 48.3282 25.7497 48.1052C26.1619 49.8757 26.574 51.6496 26.9105 53.4303Z" fill="#E0A812"/>
<path d="M47.9607 25.8942C47.5497 24.1293 47.1313 22.3199 46.8005 20.5697C39.0884 18.8505 30.7174 17.6723 24.1226 24.2671C10.4006 37.9896 30.3222 58.6057 19.1374 69.7905C18.1742 70.7531 18.1742 72.3147 19.1374 73.2773C20.1006 74.2405 21.6616 74.2405 22.6242 73.2773C36.4626 59.4396 16.3236 39.0403 27.61 27.7545C32.9317 22.4328 39.8969 24.0215 47.9607 25.8942Z" fill="#45748C"/>
<path d="M46.8005 20.5698C45.8559 20.3592 44.9024 20.1571 43.9426 19.9758C44.2458 21.7356 44.6342 23.4818 45.0379 25.2286C45.9948 25.4381 46.9699 25.6639 47.9607 25.8943C47.5497 24.1294 47.1313 22.3199 46.8005 20.5698Z" fill="#3A6175"/>
<path d="M73.1334 19.2819C72.1703 18.3188 70.6092 18.3188 69.646 19.2819C64.9471 23.9809 58.966 23.2916 52.0787 21.7768C52.4728 23.5665 52.8973 25.3122 53.2858 27.055C60.903 28.4952 67.6554 28.2468 73.1334 22.7688C74.096 21.8062 74.096 20.2445 73.1334 19.2819Z" fill="#45748C"/>
<path d="M54.8118 22.3328C53.9181 22.1697 53.0063 21.9805 52.0787 21.7767C52.4728 23.5664 52.8973 25.3121 53.2858 27.0549C54.1846 27.2249 55.0879 27.3762 55.9929 27.4976C55.6265 25.827 55.2002 24.0638 54.8118 22.3328Z" fill="#3A6175"/>
</g>
<defs>
<clipPath id="clip0">
<rect width="74" height="74" fill="white"/>
</clipPath>
</defs>
</svg>
