<svg width="74" height="74" viewBox="0 0 74 74" fill="none" xmlns="http://www.w3.org/2000/svg">
<g clip-path="url(#clip0)">
<path d="M52.3103 10.1941L58.6896 33.1724L52.3103 56.1379C44.9741 54.5048 39.7558 51.0344 29.3448 51.0344C28.911 51.0344 28.49 51.0344 28.0689 51.06L21.6896 28.0689L28.0689 5.12891C28.49 5.10339 28.911 5.10339 29.3448 5.10339C39.7558 5.10339 44.9614 8.57374 52.3103 10.1941Z" fill="#ECF0F1"/>
<path d="M28.069 5.12891V51.0599C12.4269 51.4299 6.3793 58.6896 6.3793 58.6896L3.82758 33.1723L6.3793 12.7586C6.3793 12.7586 12.4269 5.49891 28.069 5.12891Z" fill="#285680"/>
<path d="M74 10.5642V53.8669C73.9938 54.454 73.5974 54.9651 73.0304 55.1173C63.4869 57.5159 57.3883 57.2607 52.3104 56.138V10.1942C57.2735 11.3042 63.2317 11.5593 72.4307 9.32658C72.8096 9.23704 73.2085 9.32536 73.5142 9.56641C73.8199 9.80747 73.9988 10.1749 74 10.5642Z" fill="#E64C3C"/>
<path d="M6.37933 6.67273V74H1.27588V6.67273" fill="#7F8C8D"/>
<path d="M3.82759 7.65517C5.9415 7.65517 7.65517 5.9415 7.65517 3.82759C7.65517 1.71367 5.9415 0 3.82759 0C1.71367 0 0 1.71367 0 3.82759C0 5.9415 1.71367 7.65517 3.82759 7.65517Z" fill="#95A5A5"/>
</g>
<defs>
<clipPath id="clip0">
<rect width="74" height="74" fill="white"/>
</clipPath>
</defs>
</svg>
