<svg width="74" height="74" viewBox="0 0 74 74" fill="none" xmlns="http://www.w3.org/2000/svg">
<path d="M52.8847 12.3036C52.599 12.3036 52.3133 12.1946 52.0953 11.9767C51.6594 11.5408 51.6594 10.8339 52.0953 10.398L55.5716 6.92171C56.0078 6.48566 56.7145 6.4858 57.1504 6.92171C57.5863 7.35762 57.5863 8.06452 57.1504 8.50043L53.6742 11.9767C53.4562 12.1946 53.1705 12.3036 52.8847 12.3036Z" fill="#456B93"/>
<path d="M14.7486 50.4398C14.463 50.4398 14.1771 50.3309 13.9591 50.1129C13.5232 49.677 13.5232 48.9701 13.9591 48.5342L17.4347 45.0585C17.8707 44.6226 18.5775 44.6226 19.0135 45.0585C19.4494 45.4944 19.4494 46.2013 19.0135 46.6372L15.538 50.1129C15.32 50.3309 15.0343 50.4398 14.7486 50.4398Z" fill="#456B93"/>
<path d="M36.3086 58.2145V69.5342H31.1732V58.7014L36.3086 58.2145Z" fill="#CE8A6B"/>
<path d="M49.3704 73.8265V74H18.1112V73.8265C18.1112 70.6338 20.6998 68.0453 23.8925 68.0453H43.5892C46.7819 68.0453 49.3704 70.6338 49.3704 73.8265Z" fill="#456B93"/>
<path d="M31.5078 68.0453C29.8645 68.0453 28.3758 68.713 27.2976 69.7898C26.2209 70.8665 25.5531 72.3552 25.5531 74H18.1112V73.8265C18.1112 70.6338 20.6998 68.0453 23.8925 68.0453H31.5078Z" fill="#3B4F66"/>
<path d="M57.064 25.0136C57.064 28.4023 56.3873 31.6357 55.1608 34.5852H55.159C51.3955 43.6425 42.454 50.0272 32.0505 50.0272C18.2582 50.0272 7.03693 38.8059 7.03693 25.0136C7.03693 23.3746 7.19591 21.7731 7.49755 20.2215C9.73995 8.71278 19.8972 0 32.0505 0C35.7303 0 39.2297 0.799836 42.3792 2.23359C51.033 6.17221 57.064 14.9028 57.064 25.0136Z" fill="#64B9FC"/>
<path d="M36.5122 49.6273C35.0641 49.8897 33.5734 50.0272 32.0505 50.0272C18.2582 50.0272 7.03693 38.8059 7.03693 25.0136C7.03693 23.3746 7.19591 21.7731 7.49755 20.2215C9.73995 8.71278 19.8972 0 32.0505 0C33.5717 0 35.0643 0.137449 36.5141 0.398184C26.4032 2.22824 18.3868 10.1555 16.4247 20.2217C16.1229 21.7732 15.964 23.3747 15.964 25.0137C15.9639 37.283 24.8427 47.517 36.5122 49.6273Z" fill="#31A7FB"/>
<path d="M57.064 25.0135C57.064 28.4022 56.3873 31.6357 55.1608 34.5851H48.6656C46.6712 34.3977 45.5821 33.3067 45.3947 31.3142C45.3947 29.5075 43.9307 28.0434 42.1238 28.0434H37.6656C35.0624 28.0434 32.9504 25.9312 32.9504 23.328V16.0328C33.2218 13.1601 34.7929 11.5889 37.6656 11.3175C40.2687 11.3175 42.379 9.20718 42.379 6.60402V2.2334C51.033 6.17216 57.064 14.9027 57.064 25.0135Z" fill="#76FCA3"/>
<path d="M32.0505 40.5163V50.0272C18.2582 50.0272 7.03693 38.806 7.03693 25.0136C7.03693 23.3747 7.19591 21.7731 7.49755 20.2216H14.2518C17.5297 20.2216 20.1846 22.8765 20.1846 26.1527V28.6522C20.1846 31.9302 22.8413 34.5851 26.1175 34.5851C29.3544 34.5852 32.0505 37.2812 32.0505 40.5163Z" fill="#76FCA3"/>
<path d="M32.0505 48.3793V50.0272C18.2582 50.0272 7.03693 38.806 7.03693 25.0136C7.03693 23.3747 7.19591 21.7731 7.49755 20.2216H14.2518C14.9909 20.2216 15.6997 20.3573 16.3531 20.6054C16.0977 22.0373 15.9639 23.5102 15.9639 25.0136C15.9639 35.6636 22.6521 44.7781 32.0505 48.3793Z" fill="#5EDE8B"/>
<path d="M32.0502 59.9263C23.937 59.9263 16.0281 57.0699 9.7803 51.8832C8.70499 50.9906 8.55699 49.3953 9.44961 48.32C10.3422 47.2447 11.9377 47.0968 13.0129 47.9893C18.3543 52.4234 25.1152 54.8654 32.0502 54.8654C48.5106 54.8654 61.9023 41.4738 61.9023 25.0134C61.9023 18.0822 59.4626 11.324 55.0327 5.98388C54.1405 4.90828 54.2891 3.31294 55.3647 2.42075C56.4405 1.52856 58.0357 1.67728 58.9278 2.75274C64.1096 8.99909 66.9633 16.9048 66.9633 25.0136C66.9632 44.2644 51.3014 59.9263 32.0502 59.9263Z" fill="#E29E7A"/>
</svg>
