<svg width="140" height="140" viewBox="0 0 140 140" fill="none" xmlns="http://www.w3.org/2000/svg">
<path d="M115.117 46.3755V78.2032C115.117 91.4927 91.9017 98.711 70 98.711C48.0983 98.711 24.8828 91.4927 24.8828 78.2032V46.3755C24.8828 44.1602 26.6869 42.2739 28.9844 42.2739H111.016C113.313 42.2739 115.117 44.1602 115.117 46.3755Z" fill="#444444"/>
<path d="M115.117 46.3755V78.2032C115.117 91.4927 91.9017 98.711 70 98.711V42.2739H111.016C113.313 42.2739 115.117 44.1602 115.117 46.3755Z" fill="#292929"/>
<path d="M140 37.1875C140 38.9104 138.934 40.4688 137.375 41.0423L71.4761 65.6517C70.9848 65.8162 70.4924 65.8984 70 65.8984C69.5076 65.8984 69.0152 65.8162 68.5239 65.6517L2.62543 41.0423V33.3316L68.5239 8.72223C69.0152 8.55881 69.5076 8.47656 70 8.47656C70.4924 8.47656 70.9848 8.55881 71.4761 8.72223L137.375 33.3316C138.934 33.9062 140 35.4646 140 37.1875Z" fill="#6E6E6E"/>
<path d="M140 37.1875C140 38.9104 138.934 40.4688 137.375 41.0423L71.4761 65.6517C70.9848 65.8162 70.4924 65.8984 70 65.8984V8.47656C70.4924 8.47656 70.9848 8.55881 71.4761 8.72223L137.375 33.3316C138.934 33.9062 140 35.4646 140 37.1875Z" fill="#5A5A5A"/>
<path d="M74.1016 37.1875C74.1016 39.4839 72.2975 41.2891 70 41.2891H8.20312V102.156L16.1595 126.109C16.8987 128.241 15.7494 130.621 13.6174 131.277C11.4021 132.016 9.10568 130.867 8.44986 128.734L8.20312 127.997C7.87521 129.965 6.15234 131.523 4.10156 131.523C1.80405 131.523 0 129.718 0 127.422V37.1875C0 34.89 1.80405 33.0859 4.10156 33.0859H70C72.2975 33.0859 74.1016 34.89 74.1016 37.1875Z" fill="#FDBF00"/>
</svg>
