<svg width="19" height="17" viewBox="0 0 19 17" fill="none" xmlns="http://www.w3.org/2000/svg">
<g clip-path="url(#clip0)">
<path d="M8.63175 0.0840454C4.33184 0.0840454 0.833374 3.36933 0.833374 7.40722C0.833374 11.4453 4.33184 14.7304 8.63175 14.7304C12.9319 14.7304 16.4301 11.4453 16.4301 7.40722C16.4301 3.36933 12.9319 0.0840454 8.63175 0.0840454ZM8.63175 13.3785C5.1256 13.3785 2.27308 10.6997 2.27308 7.40725C2.27308 4.11476 5.1256 1.43602 8.63175 1.43602C12.1379 1.43602 14.9904 4.11473 14.9904 7.40722C14.9904 10.6997 12.1379 13.3785 8.63175 13.3785Z" fill="black"/>
<path d="M17.9885 15.9239L17.9887 15.924C18.0281 15.961 18.0417 16.0019 18.0417 16.0373C18.0417 16.0728 18.0281 16.1136 17.9887 16.1506L17.9886 16.1507C17.9473 16.1895 17.8882 16.2133 17.8219 16.2133C17.7554 16.2133 17.6965 16.1895 17.6552 16.1508L13.528 12.2751L13.5279 12.275C13.4884 12.2379 13.4749 12.1971 13.4749 12.1617C13.4749 12.1262 13.4884 12.0854 13.5279 12.0484L13.528 12.0482C13.6169 11.9648 13.7726 11.9648 13.8614 12.0482L17.9885 15.9239Z" fill="black" stroke="black"/>
</g>
<defs>
<clipPath id="clip0">
<rect width="17.7083" height="16.6293" fill="white" transform="translate(0.833374 0.0840454)"/>
</clipPath>
</defs>
</svg>
