<svg width="74" height="74" viewBox="0 0 74 74" fill="none" xmlns="http://www.w3.org/2000/svg">
<path d="M66.1086 61.2927H56.2383C56.0014 61.2927 55.774 61.1986 55.6065 61.0311L54.2664 59.691C53.9175 59.3421 53.3518 59.3421 53.0031 59.691L51.663 61.0311C51.4955 61.1986 51.2683 61.2927 51.0312 61.2927H7.8914V12.7073H21.7275C21.9644 12.7073 22.1918 12.8014 22.3593 12.9689L23.6994 14.309C24.0483 14.6579 24.614 14.6579 24.9627 14.309L26.3028 12.9689C26.4703 12.8014 26.6975 12.7073 26.9345 12.7073H66.1086V61.2927Z" fill="#F3DCB0"/>
<path d="M2.23344 6.99805H10.1248V67.0021H2.23344V6.99805Z" fill="#CE9775"/>
<path d="M10.1247 6.84905H2.23331V3.9457C2.23331 1.76661 3.99991 0 6.17901 0C8.35811 0 10.1247 1.76661 10.1247 3.9457V6.84905Z" fill="#655E67"/>
<path d="M6.69338 6.84905V3.9457C6.69338 2.38144 5.78312 1.02993 4.46341 0.39168C4.98213 0.140773 5.56416 0 6.17914 0C8.35824 0 10.1248 1.76646 10.1248 3.9457V6.84919H6.69338V6.84905Z" fill="#544F56"/>
<path d="M11.4648 9.23133H0.893348C0.399918 9.23133 0 8.83141 0 8.33798V5.50907C0 5.01564 0.399918 4.61572 0.893348 4.61572H11.4648C11.9582 4.61572 12.3581 5.01564 12.3581 5.50907V8.33798C12.3581 8.83141 11.9582 9.23133 11.4648 9.23133Z" fill="#B0AAB3"/>
<path d="M10.1247 67.1509H2.23331V70.0542C2.23331 72.2333 3.99991 73.9999 6.17901 73.9999C8.35811 73.9999 10.1247 72.2333 10.1247 70.0542V67.1509Z" fill="#655E67"/>
<path d="M6.69338 67.1509V70.0543C6.69338 71.6185 5.78312 72.97 4.46341 73.6083C4.98213 73.8592 5.56416 74 6.17914 74C8.35824 74 10.1248 72.2335 10.1248 70.0543V67.1508H6.69338V67.1509Z" fill="#544F56"/>
<path d="M11.4648 64.7686H0.893348C0.399918 64.7686 0 65.1685 0 65.662V68.4909C0 68.9843 0.399918 69.3842 0.893348 69.3842H11.4648C11.9582 69.3842 12.3581 68.9843 12.3581 68.4909V65.662C12.3581 65.1685 11.9582 64.7686 11.4648 64.7686Z" fill="#B0AAB3"/>
<path d="M63.8753 6.99805H71.7667V67.0021H63.8753V6.99805Z" fill="#CE9775"/>
<path d="M71.7666 6.84905H63.8752V3.9457C63.8752 1.76661 65.6418 0 67.8209 0C70 0 71.7666 1.76661 71.7666 3.9457V6.84905Z" fill="#655E67"/>
<path d="M68.3352 6.84905V3.9457C68.3352 2.38144 67.425 1.02993 66.1053 0.39168C66.624 0.140773 67.206 0 67.8209 0C70 0 71.7666 1.76646 71.7666 3.9457V6.84919H68.3352V6.84905Z" fill="#544F56"/>
<path d="M73.1066 9.23133H62.5352C62.0418 9.23133 61.6418 8.83141 61.6418 8.33798V5.50907C61.6418 5.01564 62.0418 4.61572 62.5352 4.61572H73.1066C73.6001 4.61572 74 5.01564 74 5.50907V8.33798C74 8.83141 73.6001 9.23133 73.1066 9.23133Z" fill="#B0AAB3"/>
<path d="M67.2998 9.23132H71.7666V64.7686H67.2998V9.23132Z" fill="#C6855B"/>
<path d="M5.65796 9.23132H10.1247V64.7686H5.65796V9.23132Z" fill="#C6855B"/>
<path d="M71.7665 67.1509H63.8751V70.0543C63.8751 72.2334 65.6417 74 67.8208 74C69.9999 74 71.7665 72.2334 71.7665 70.0543V67.1509Z" fill="#766D78"/>
<path d="M68.3352 67.151V70.0543C68.3352 71.6186 67.425 72.9701 66.1053 73.6083C66.624 73.8592 67.206 74 67.821 74C70.0001 74 71.7667 72.2335 71.7667 70.0543V67.1508H68.3352V67.151Z" fill="#544F56"/>
<path d="M73.1066 64.7686H62.5352C62.0418 64.7686 61.6418 65.1685 61.6418 65.662V68.4909C61.6418 68.9843 62.0418 69.3842 62.5352 69.3842H73.1066C73.6001 69.3842 74 68.9843 74 68.4909V65.662C74 65.1685 73.6001 64.7686 73.1066 64.7686Z" fill="#B0AAB3"/>
<path d="M73.1066 64.7686H68.6399C69.1333 64.7686 69.5333 65.1687 69.5333 65.662V68.4909C69.5333 68.9842 69.1333 69.3842 68.6399 69.3842H73.1066C73.6001 69.3842 74 68.9842 74 68.4909V65.662C74 65.1685 73.6001 64.7686 73.1066 64.7686Z" fill="#A199A4"/>
<path d="M73.1066 4.61572H68.6399C69.1333 4.61572 69.5333 5.01579 69.5333 5.50907V8.33798C69.5333 8.83126 69.1333 9.23133 68.6399 9.23133H73.1066C73.6001 9.23133 74 8.83126 74 8.33798V5.50907C74 5.01564 73.6001 4.61572 73.1066 4.61572Z" fill="#A199A4"/>
<path d="M11.4648 64.7686H6.99805C7.49148 64.7686 7.89139 65.1687 7.89139 65.662V68.4909C7.89139 68.9842 7.49148 69.3842 6.99805 69.3842H11.4648C11.9582 69.3842 12.3581 68.9842 12.3581 68.4909V65.662C12.3581 65.1685 11.9582 64.7686 11.4648 64.7686Z" fill="#A199A4"/>
<path d="M11.4648 4.61572H6.99805C7.49148 4.61572 7.89139 5.01579 7.89139 5.50907V8.33798C7.89139 8.83126 7.49148 9.23133 6.99805 9.23133H11.4648C11.9582 9.23133 12.3581 8.83126 12.3581 8.33798V5.50907C12.3581 5.01564 11.9582 4.61572 11.4648 4.61572Z" fill="#A199A4"/>
<path d="M57.994 21.664H16.006C15.3892 21.664 14.8893 21.164 14.8893 20.5473C14.8893 19.9306 15.3892 19.4307 16.006 19.4307H57.9939C58.6106 19.4307 59.1105 19.9306 59.1105 20.5473C59.1105 21.164 58.6107 21.664 57.994 21.664Z" fill="#EECB81"/>
<path d="M57.994 28.3641H16.006C15.3892 28.3641 14.8893 27.8642 14.8893 27.2474C14.8893 26.6307 15.3892 26.1308 16.006 26.1308H57.9939C58.6106 26.1308 59.1105 26.6307 59.1105 27.2474C59.1107 27.8642 58.6107 28.3641 57.994 28.3641Z" fill="#EECB81"/>
<path d="M57.994 35.0644H16.006C15.3892 35.0644 14.8893 34.5645 14.8893 33.9478C14.8893 33.331 15.3892 32.8311 16.006 32.8311H57.9939C58.6106 32.8311 59.1105 33.331 59.1105 33.9478C59.1105 34.5645 58.6107 35.0644 57.994 35.0644Z" fill="#EECB81"/>
<path d="M57.994 41.7646H16.006C15.3892 41.7646 14.8893 41.2647 14.8893 40.648C14.8893 40.0312 15.3892 39.5313 16.006 39.5313H57.9939C58.6106 39.5313 59.1105 40.0312 59.1105 40.648C59.1105 41.2647 58.6107 41.7646 57.994 41.7646Z" fill="#EECB81"/>
<path d="M57.994 48.4648H16.006C15.3892 48.4648 14.8893 47.9649 14.8893 47.3482C14.8893 46.7314 15.3892 46.2315 16.006 46.2315H57.9939C58.6106 46.2315 59.1105 46.7314 59.1105 47.3482C59.1105 47.9649 58.6107 48.4648 57.994 48.4648Z" fill="#EECB81"/>
<path d="M44.5935 55.165H16.006C15.3892 55.165 14.8893 54.6651 14.8893 54.0483C14.8893 53.4315 15.3892 52.9317 16.006 52.9317H44.5935C45.2102 52.9317 45.7102 53.4316 45.7102 54.0483C45.7103 54.6651 45.2102 55.165 44.5935 55.165Z" fill="#EECB81"/>
</svg>
