<svg width="183" height="183" viewBox="0 0 183 183" fill="none" xmlns="http://www.w3.org/2000/svg">
<g clip-path="url(#clip0)">
<path d="M36.6044 35.6562V170.801C36.6044 177.539 42.0664 183.001 48.8043 183.001H164.705C171.443 183.001 176.905 177.539 176.905 170.801V35.6562H36.6044Z" fill="#F9F5F3"/>
<path d="M168.436 35.6562V170.801C168.436 177.539 162.974 183.001 156.236 183.001H164.705C171.443 183.001 176.905 177.539 176.905 170.801V35.6562H168.436Z" fill="#F9EAE0"/>
<path d="M80.2379 142.28L32.6278 94.6699L15.3742 111.923L62.9844 159.534C63.2863 159.836 63.6468 160.065 64.0389 160.211C64.3648 160.333 64.7205 160.044 65.0747 160.044L67.6967 160.396L81.1007 146.992L79.9047 144.594C79.9051 143.813 80.7906 142.832 80.2379 142.28Z" fill="#A0C8FF"/>
<path d="M80.238 142.28L32.6278 94.6699L28.4022 98.8955L77.6708 148.164C78.0747 148.568 78.3476 149.078 78.4658 149.627L81.1007 146.992L80.664 144.417C80.664 144.06 81.0359 143.655 80.9125 143.327C80.7667 142.938 80.5381 142.58 80.238 142.28Z" fill="#91B2FA"/>
<path d="M85.4142 167.472C84.7073 167.472 84.0007 167.202 83.4616 166.663L73.6032 156.804C72.5247 155.726 72.5247 153.977 73.6032 152.899C74.6817 151.82 76.4303 151.82 77.5088 152.899L87.3672 162.757C88.4457 163.836 88.4457 165.584 87.3672 166.662C86.8278 167.202 86.1212 167.472 85.4142 167.472Z" fill="#868EAF"/>
<path d="M23.1677 106.379L27.0725 102.474L74.4044 149.806L70.4995 153.711L23.1677 106.379Z" fill="#91B2FA"/>
<path d="M81.101 157.45V144.363C81.101 144.007 81.0336 143.659 80.9114 143.332L64.0371 160.206C64.3641 160.329 64.712 160.396 65.0677 160.396H78.1554C79.7821 160.396 81.101 159.077 81.101 157.45Z" fill="#F9EAE0"/>
<path d="M16.5087 87.1774L7.88189 95.8041C5.49958 98.1865 5.49958 102.049 7.88189 104.431L16.5087 113.058L33.7622 95.8041L25.1354 87.1774C22.7531 84.795 18.8906 84.795 16.5087 87.1774Z" fill="#FA8EBB"/>
<path d="M16.5963 87.0978C16.625 87.1254 16.6559 87.149 16.6839 87.177L29.5363 100.029L33.7618 95.8038L25.1351 87.177C22.7811 84.823 18.9845 84.7995 16.5963 87.0978Z" fill="#F57FB0"/>
<path d="M155.555 63.7614H57.9547C56.4295 63.7614 55.1931 62.525 55.1931 60.9998C55.1931 59.4747 56.4295 58.2383 57.9547 58.2383H155.555C157.08 58.2383 158.316 59.4747 158.316 60.9998C158.316 62.525 157.08 63.7614 155.555 63.7614Z" fill="#868EAF"/>
<path d="M155.555 82.0622H57.9547C56.4295 82.0622 55.1931 80.8258 55.1931 79.3006C55.1931 77.7755 56.4295 76.5391 57.9547 76.5391H155.555C157.08 76.5391 158.316 77.7755 158.316 79.3006C158.316 80.8258 157.08 82.0622 155.555 82.0622Z" fill="#868EAF"/>
<path d="M155.555 100.363H57.9547C56.4295 100.363 55.1931 99.1265 55.1931 97.6014C55.1931 96.0763 56.4295 94.8398 57.9547 94.8398H155.555C157.08 94.8398 158.316 96.0763 158.316 97.6014C158.316 99.1265 157.08 100.363 155.555 100.363Z" fill="#868EAF"/>
<path d="M155.555 118.662H57.9547C56.4295 118.662 55.1931 117.425 55.1931 115.9C55.1931 114.375 56.4295 113.139 57.9547 113.139H155.555C157.08 113.139 158.316 114.375 158.316 115.9C158.316 117.425 157.08 118.662 155.555 118.662Z" fill="#868EAF"/>
<path d="M155.555 136.963H91.5048C89.9797 136.963 88.7432 135.726 88.7432 134.201C88.7432 132.676 89.9797 131.439 91.5048 131.439H155.555C157.08 131.439 158.316 132.676 158.316 134.201C158.316 135.727 157.08 136.963 155.555 136.963Z" fill="#868EAF"/>
<path d="M164.705 12.1992H48.8043C42.0664 12.1992 36.6044 17.6612 36.6044 24.3991V42.6995H176.905V24.3987C176.905 17.6612 171.443 12.1992 164.705 12.1992Z" fill="#FFCE69"/>
<path d="M164.705 12.1992H156.236C162.974 12.1992 168.436 17.6612 168.436 24.3991V42.6995H176.905V24.3987C176.905 17.6612 171.443 12.1992 164.705 12.1992Z" fill="#FFBD61"/>
<path d="M54.9048 18.3C54.9048 21.6691 57.6358 24.4001 61.0049 24.4001C64.374 24.4001 67.105 21.6691 67.105 18.3V6.10012C67.105 2.73101 64.3736 0 61.0049 0C57.6358 0 54.9048 2.73101 54.9048 6.10012V18.3Z" fill="#BDD3DD"/>
<path d="M146.405 18.3C146.405 21.6691 149.136 24.4001 152.505 24.4001C155.874 24.4001 158.605 21.6691 158.605 18.3V6.10012C158.605 2.73101 155.874 0 152.505 0C149.136 0 146.405 2.73101 146.405 6.10012V18.3Z" fill="#BDD3DD"/>
<path d="M85.4047 18.3C85.4047 21.6691 88.1357 24.4001 91.5048 24.4001C94.8739 24.4001 97.6049 21.6691 97.6049 18.3V6.10012C97.6049 2.73101 94.8739 0 91.5048 0C88.1357 0 85.4047 2.73101 85.4047 6.10012V18.3Z" fill="#BDD3DD"/>
<path d="M115.905 18.3C115.905 21.6691 118.636 24.4001 122.005 24.4001C125.374 24.4001 128.105 21.6691 128.105 18.3V6.10012C128.105 2.73101 125.374 0 122.005 0C118.636 0 115.905 2.73101 115.905 6.10012V18.3Z" fill="#BDD3DD"/>
<path d="M152.505 0C150.859 0 149.368 0.655044 148.271 1.71475C149.419 2.82416 150.136 4.37727 150.136 6.10012V18.3C150.136 20.0229 149.419 21.576 148.271 22.6854C149.368 23.7451 150.859 24.4001 152.505 24.4001C155.874 24.4001 158.605 21.6691 158.605 18.3V6.10012C158.605 2.73101 155.874 0 152.505 0V0Z" fill="#ABC4D6"/>
<path d="M122.005 0C120.359 0 118.868 0.655044 117.771 1.71475C118.919 2.82416 119.636 4.37727 119.636 6.10012V18.3C119.636 20.0229 118.919 21.576 117.771 22.6854C118.868 23.7451 120.359 24.4001 122.005 24.4001C125.374 24.4001 128.105 21.6691 128.105 18.3V6.10012C128.105 2.73101 125.374 0 122.005 0V0Z" fill="#ABC4D6"/>
<path d="M91.5048 0C89.8589 0 88.3676 0.655044 87.2704 1.71475C88.4188 2.82416 89.1361 4.37727 89.1361 6.10012V18.3C89.1361 20.0229 88.4188 21.576 87.2704 22.6854C88.3676 23.7451 89.8589 24.4001 91.5048 24.4001C94.8739 24.4001 97.6049 21.6691 97.6049 18.3V6.10012C97.6049 2.73101 94.8739 0 91.5048 0V0Z" fill="#ABC4D6"/>
<path d="M61.0049 0C59.359 0 57.8678 0.655044 56.7705 1.71475C57.9189 2.82416 58.6362 4.37727 58.6362 6.10012V18.3C58.6362 20.0229 57.9189 21.576 56.7705 22.6854C57.8678 23.7451 59.359 24.4001 61.0049 24.4001C64.374 24.4001 67.105 21.6691 67.105 18.3V6.10012C67.105 2.73101 64.374 0 61.0049 0V0Z" fill="#ABC4D6"/>
</g>
<defs>
<clipPath id="clip0">
<rect width="183" height="183" fill="white"/>
</clipPath>
</defs>
</svg>
