<svg width="140" height="140" viewBox="0 0 140 140" fill="none" xmlns="http://www.w3.org/2000/svg">
<path d="M137.586 69.9999V132.759H94.1379V65.1724L137.586 69.9999Z" fill="#86B4CC"/>
<path d="M45.8621 65.1724V132.759H2.4138V69.9999L45.8621 65.1724Z" fill="#86B4CC"/>
<path d="M41.0345 65.1724H98.9655V132.759H41.0345V65.1724Z" fill="#A1C8D3"/>
<path d="M62.7586 96.5518H77.2414C78.5745 96.5518 79.6552 97.6325 79.6552 98.9656V127.931H60.3448V98.9656C60.3448 97.6325 61.4255 96.5518 62.7586 96.5518Z" fill="#567580"/>
<path d="M62.7586 86.8966C61.4255 86.8966 60.3448 85.8159 60.3448 84.4828V79.6552C60.3448 78.3221 61.4255 77.2415 62.7586 77.2415C64.0917 77.2415 65.1724 78.3221 65.1724 79.6552V84.4828C65.1724 85.8159 64.0917 86.8966 62.7586 86.8966Z" fill="#464F5E"/>
<path d="M28.9655 89.3105C27.6324 89.3105 26.5517 88.2298 26.5517 86.8967V82.0691C26.5517 80.736 27.6324 79.6553 28.9655 79.6553C30.2986 79.6553 31.3793 80.736 31.3793 82.0691V86.8967C31.3793 88.2298 30.2986 89.3105 28.9655 89.3105Z" fill="#464F5E"/>
<path d="M14.4827 89.3105C13.1496 89.3105 12.069 88.2298 12.069 86.8967V82.0691C12.069 80.736 13.1496 79.6553 14.4827 79.6553C15.8158 79.6553 16.8965 80.736 16.8965 82.0691V86.8967C16.8965 88.2298 15.8158 89.3105 14.4827 89.3105Z" fill="#464F5E"/>
<path d="M28.9655 103.793C27.6324 103.793 26.5517 102.712 26.5517 101.379V96.5517C26.5517 95.2186 27.6324 94.1379 28.9655 94.1379C30.2986 94.1379 31.3793 95.2186 31.3793 96.5517V101.379C31.3793 102.712 30.2986 103.793 28.9655 103.793Z" fill="#464F5E"/>
<path d="M14.4827 103.793C13.1496 103.793 12.069 102.712 12.069 101.379V96.5517C12.069 95.2186 13.1496 94.1379 14.4827 94.1379C15.8158 94.1379 16.8965 95.2186 16.8965 96.5517V101.379C16.8965 102.712 15.8158 103.793 14.4827 103.793Z" fill="#464F5E"/>
<path d="M28.9655 118.276C27.6324 118.276 26.5517 117.195 26.5517 115.862V111.035C26.5517 109.702 27.6324 108.621 28.9655 108.621C30.2986 108.621 31.3793 109.702 31.3793 111.035V115.862C31.3793 117.195 30.2986 118.276 28.9655 118.276Z" fill="#464F5E"/>
<path d="M14.4827 118.276C13.1496 118.276 12.069 117.195 12.069 115.862V111.035C12.069 109.702 13.1496 108.621 14.4827 108.621C15.8158 108.621 16.8965 109.702 16.8965 111.035V115.862C16.8965 117.195 15.8158 118.276 14.4827 118.276Z" fill="#464F5E"/>
<path d="M125.517 89.3105C124.184 89.3105 123.103 88.2298 123.103 86.8967V82.0691C123.103 80.736 124.184 79.6553 125.517 79.6553C126.85 79.6553 127.931 80.736 127.931 82.0691V86.8967C127.931 88.2298 126.85 89.3105 125.517 89.3105Z" fill="#464F5E"/>
<path d="M111.034 89.3105C109.701 89.3105 108.621 88.2298 108.621 86.8967V82.0691C108.621 80.736 109.701 79.6553 111.034 79.6553C112.368 79.6553 113.448 80.736 113.448 82.0691V86.8967C113.448 88.2298 112.368 89.3105 111.034 89.3105Z" fill="#464F5E"/>
<path d="M125.517 103.793C124.184 103.793 123.103 102.712 123.103 101.379V96.5517C123.103 95.2186 124.184 94.1379 125.517 94.1379C126.85 94.1379 127.931 95.2186 127.931 96.5517V101.379C127.931 102.712 126.85 103.793 125.517 103.793Z" fill="#464F5E"/>
<path d="M111.034 103.793C109.701 103.793 108.621 102.712 108.621 101.379V96.5517C108.621 95.2186 109.701 94.1379 111.034 94.1379C112.368 94.1379 113.448 95.2186 113.448 96.5517V101.379C113.448 102.712 112.368 103.793 111.034 103.793Z" fill="#464F5E"/>
<path d="M125.517 118.276C124.184 118.276 123.103 117.195 123.103 115.862V111.035C123.103 109.702 124.184 108.621 125.517 108.621C126.85 108.621 127.931 109.702 127.931 111.035V115.862C127.931 117.195 126.85 118.276 125.517 118.276Z" fill="#464F5E"/>
<path d="M111.034 118.276C109.701 118.276 108.621 117.195 108.621 115.862V111.035C108.621 109.702 109.701 108.621 111.034 108.621C112.368 108.621 113.448 109.702 113.448 111.035V115.862C113.448 117.195 112.368 118.276 111.034 118.276Z" fill="#464F5E"/>
<path d="M77.2414 86.8966C75.9083 86.8966 74.8276 85.8159 74.8276 84.4828V79.6552C74.8276 78.3221 75.9083 77.2415 77.2414 77.2415C78.5745 77.2415 79.6552 78.3221 79.6552 79.6552V84.4828C79.6552 85.8159 78.5745 86.8966 77.2414 86.8966Z" fill="#464F5E"/>
<path d="M137.586 127.931H2.41379C1.08069 127.931 0 129.012 0 130.345V135.172C0 136.505 1.08069 137.586 2.41379 137.586H36.2069C36.2069 138.919 37.2876 140 38.6207 140H101.379C102.712 140 103.793 138.919 103.793 137.586H137.586C138.919 137.586 140 136.505 140 135.172V130.345C140 129.012 138.919 127.931 137.586 127.931Z" fill="#EDC100"/>
<path d="M103.793 127.931V137.586C103.793 138.919 102.712 140 101.379 140H38.6207C37.2876 140 36.2069 138.919 36.2069 137.586V127.931H103.793Z" fill="#F8E8AB"/>
<path d="M91.7241 11.1516V41.0344H48.2759V11.1516L69.3965 19.5323C69.7862 19.6748 70.2138 19.6748 70.6034 19.5323L91.7241 11.1516Z" fill="#393F4B"/>
<path d="M131.672 58.1965C130.857 56.556 129.184 55.5182 127.352 55.5172H108.621V50.6896L95.5621 37.631C94.6541 36.7198 93.4208 36.2074 92.1345 36.2069H45.7173C44.2802 36.1994 42.9158 36.8373 42 37.9448L31.3793 50.6896V55.5172H12.6483C10.8164 55.5182 9.14281 56.556 8.3276 58.1965L2.4138 70H137.586L131.672 58.1965Z" fill="#4397D5"/>
<path d="M108.621 50.6897V57.9311C108.621 59.2642 107.54 60.3449 106.207 60.3449H33.7931C32.46 60.3449 31.3793 59.2642 31.3793 57.9311V50.6897H108.621Z" fill="#2B5781"/>
<path d="M36.2069 60.3447H103.793V69.9999H36.2069V60.3447Z" fill="#3180BC"/>
<path d="M103.793 10.862C103.824 11.9658 103.079 12.9412 102.007 13.2034L98.9655 14.0241L91.7241 15.9793L70.6034 21.6517C70.2069 21.7482 69.7931 21.7482 69.3965 21.6517L48.2759 15.9793L37.9931 13.2034C36.9192 12.9343 36.1661 11.9691 36.1661 10.862C36.1661 9.75496 36.9192 8.7898 37.9931 8.52067L69.3965 0.0723903C69.7931 -0.0241301 70.2069 -0.0241301 70.6034 0.0723903L98.9655 7.69998L102.007 8.52067C103.079 8.78293 103.824 9.75827 103.793 10.862Z" fill="#464F5E"/>
<path d="M105.603 27.8793C105.159 28.5537 104.407 28.9613 103.6 28.9655C103.125 28.9711 102.661 28.8276 102.272 28.5552C100.204 27.1915 98.9606 24.8778 98.9655 22.4V14.0241L102.007 13.2034C103.079 12.9412 103.824 11.9658 103.793 10.8621V22.4C103.793 23.2654 104.229 24.0726 104.952 24.5483C105.484 24.9004 105.852 25.4513 105.975 26.0774C106.097 26.7035 105.963 27.3526 105.603 27.8793Z" fill="#EDC100"/>
</svg>
