<svg width="74" height="74" viewBox="0 0 74 74" fill="none" xmlns="http://www.w3.org/2000/svg">
<path d="M2.23344 0C1.00001 0 0 1.00001 0 2.23344V4.46688L2.33967 28.2898L0 55.0905V71.7666C0 73 1.00001 74 2.23344 74C3.46687 74 4.46688 73 4.46688 71.7666V2.23344C4.46674 1.00001 3.46687 0 2.23344 0Z" fill="#535650"/>
<path d="M69.5333 16.3783L65.0664 37.2233L74 31.2676V16.3783H69.5333Z" fill="#FF2E23"/>
<path d="M69.5333 16.3783H35.8833V37.2233H69.5333V16.3783Z" fill="#FF4A26"/>
<path d="M69.5333 67.002H74V52.1127L65.0664 46.157L69.5333 67.002Z" fill="#FF2E23"/>
<path d="M69.5333 46.157H35.8833V67.002H69.5333V46.157Z" fill="#FF4A26"/>
<path d="M69.5333 52.1126H74V31.2676H69.5333L65.0664 41.6902L69.5333 52.1126Z" fill="#FFCE53"/>
<path d="M69.5333 31.2676H35.8833V52.1126H69.5333V31.2676Z" fill="#FFE373"/>
<path d="M35.8833 4.4668H31.4166V25.3118H41.8392V10.4226C41.839 7.1334 39.1724 4.4668 35.8833 4.4668Z" fill="#FF2E23"/>
<path d="M31.4165 4.4668H0V21.3414L37.3722 25.312V10.4226C37.3722 7.1334 34.7057 4.4668 31.4165 4.4668Z" fill="#FF4A26"/>
<path d="M21.7384 46.1569H41.8389V25.3119C41.8389 22.5368 39.9408 20.2051 37.3722 19.5438L21.7384 46.1569Z" fill="#FFCE53"/>
<path d="M0 19.3562V40.2012L37.3722 46.1569V19.5438C36.8964 19.4212 36.3973 19.3562 35.8832 19.3562H0Z" fill="#FFE373"/>
<path d="M37.3717 40.3887L32.9054 58.0685H41.839V46.1571C41.839 43.3816 39.9406 41.0496 37.3717 40.3887Z" fill="#FF2E23"/>
<path d="M0 40.2012V55.0905H29.9275L37.3722 61.0462V40.3888C36.8964 40.2662 36.3973 40.2012 35.8832 40.2012H0Z" fill="#FF4A26"/>
<path d="M35.8834 55.0906H29.9277V61.0463C29.9277 64.3355 32.5943 67.002 35.8834 67.002C39.1725 67.002 41.8391 64.3354 41.8391 61.0463C41.8391 57.757 39.1725 55.0906 35.8834 55.0906Z" fill="#DE2318"/>
</svg>
