<svg width="183" height="183" viewBox="0 0 183 183" fill="none" xmlns="http://www.w3.org/2000/svg">
<path d="M90.6539 106.119L15.4806 106.824C9.37977 106.824 4.43435 101.878 4.43435 95.7775L3.97593 16.6202C3.97593 11.2823 3.78667 1.25449 8.82009 0.224239C9.53921 0.077324 10.2837 0 11.0463 0H99.4165C105.517 0 110.463 4.94542 110.463 11.0463V99.4165C110.463 100.044 110.41 100.66 110.31 101.258C109.433 106.482 96.1269 106.119 90.6539 106.119Z" fill="#FAF8F8"/>
<path d="M83.6623 39.0995C86.3086 39.0995 88.4542 36.9543 88.4542 34.3076C88.4542 31.6613 86.309 29.5157 83.6623 29.5157H60.0233V25.0438C60.0233 22.3971 57.8777 20.252 55.2314 20.252C52.5851 20.252 50.4395 22.3971 50.4395 25.0438V29.5161H26.8005C24.1542 29.5161 22.0086 31.6613 22.0086 34.308C22.0086 36.9543 24.1538 39.0998 26.8005 39.0998H35.7192C38.8796 47.2133 43.4885 55.2907 49.097 62.765C42.7167 70.1185 35.3105 76.5666 27.5004 81.3287C25.2407 82.7065 24.5261 85.6551 25.9039 87.9145C26.8067 89.395 28.3838 90.2121 29.9995 90.2121C30.8497 90.2121 31.7106 89.9856 32.4897 89.511C40.665 84.5262 48.4409 77.8594 55.2314 70.2492C62.0219 77.859 69.7981 84.5258 77.9731 89.511C78.7522 89.986 79.6131 90.2121 80.4633 90.2121C82.079 90.2121 83.656 89.3947 84.5589 87.9145C85.9367 85.6548 85.2217 82.7065 82.9623 81.3287C75.1522 76.5666 67.7461 70.1185 61.3658 62.765C66.9739 55.2907 71.5832 47.2137 74.7435 39.0998H83.6623V39.0995ZM55.2314 54.9693C51.6104 49.8781 48.5108 44.5195 46.0972 39.0995H64.3656C61.9519 44.5195 58.8524 49.8781 55.2314 54.9693Z" fill="#5D748A"/>
<path d="M110.304 101.257C109.432 106.482 104.892 110.463 99.4165 110.463H11.0463C4.94542 110.463 0 105.517 0 99.4164V11.0462C0 5.57088 3.98034 1.03086 9.20523 0.158203V96.8389C9.20523 99.279 11.1836 101.257 13.6237 101.257H110.304Z" fill="#F0E9E6"/>
<path d="M163.191 178.656L88.0178 179.361C81.917 179.361 76.9716 174.415 76.9716 168.315L76.5131 89.1573C76.5131 83.8194 76.3239 73.7916 81.3573 72.7613C82.0764 72.6141 82.8209 72.5371 83.5835 72.5371H171.954C178.055 72.5371 183 77.4825 183 83.5834V171.954C183 172.581 182.948 173.197 182.847 173.795C181.97 179.02 168.664 178.656 163.191 178.656Z" fill="#AAD8DE"/>
<path d="M182.842 173.795C181.969 179.019 177.429 183 171.954 183H83.5835C77.4827 183 72.5372 178.054 72.5372 171.954V83.5833C72.5372 78.108 76.5176 73.568 81.7425 72.6953V169.376C81.7425 171.816 83.7209 173.795 86.161 173.795H182.842Z" fill="#94CCD4"/>
<path d="M156.087 156.251L133.629 96.7425C133.612 96.6987 133.595 96.6545 133.577 96.6111C132.622 94.2888 130.383 92.7891 127.872 92.7891C127.87 92.7891 127.868 92.7891 127.866 92.7891C125.353 92.7913 123.114 94.2961 122.163 96.6221C122.148 96.6582 122.133 96.6947 122.12 96.7311L99.4559 156.238C98.5122 158.715 99.7556 161.49 102.234 162.433C102.796 162.647 103.374 162.748 103.941 162.748C105.876 162.748 107.699 161.571 108.429 159.655L112.896 147.927H142.683L147.103 159.641C148.039 162.122 150.809 163.374 153.29 162.438C155.771 161.502 157.023 158.732 156.087 156.251ZM116.552 138.326L127.857 108.643L139.059 138.326H116.552Z" fill="#FAF8F8"/>
<path d="M157.362 74.4786L141.93 87.7525C141.514 88.106 140.903 88.106 140.487 87.7525L125.055 74.4786C124.278 73.8121 124.753 72.5381 125.777 72.5381H132.924C133.534 72.5381 134.028 72.0436 134.028 71.4335V49.3409L136.492 44.0332L148.757 49.3409V71.4335C148.757 72.0436 149.251 72.5381 149.861 72.5381H156.64C157.663 72.5381 158.138 73.8121 157.362 74.4786Z" fill="#ABD641"/>
<path d="M148.757 49.341H111.567C110.957 49.341 110.463 49.8355 110.463 50.4456V57.4085C110.463 58.4321 109.189 58.9071 108.522 58.1301L95.2484 42.6985C94.8949 42.2824 94.8949 41.6712 95.2484 41.2551L108.522 25.8235C109.189 25.0466 110.463 25.5215 110.463 26.5452V33.508C110.463 34.1181 110.957 34.6126 111.567 34.6126H134.028C142.162 34.6126 148.757 41.2073 148.757 49.341Z" fill="#B7E546"/>
<path d="M57.2234 110.462H50.0765C49.4663 110.462 48.9718 110.956 48.9718 111.567V133.659L40.9769 139.923L34.2435 133.659V111.567C34.2435 110.956 33.749 110.462 33.1388 110.462H26.3601C25.3365 110.462 24.8615 109.188 25.6384 108.521L41.0701 95.2475C41.4861 94.8941 42.0974 94.8941 42.5134 95.2475L57.9451 108.521C58.722 109.188 58.247 110.462 57.2234 110.462Z" fill="#ABD641"/>
<path d="M48.9718 133.66H34.2435C34.2435 141.793 40.8381 148.388 48.9718 148.388H71.4326C72.0427 148.388 72.5372 148.882 72.5372 149.492V156.455C72.5372 157.479 73.8112 157.954 74.4777 157.177L87.7516 141.745C88.1051 141.329 88.1051 140.718 87.7516 140.302L74.4777 124.87C73.8112 124.093 72.5372 124.568 72.5372 125.592V132.555C72.5372 133.165 72.0427 133.66 71.4326 133.66H59.2154H48.9718Z" fill="#B7E546"/>
</svg>
