<svg width="183" height="183" viewBox="0 0 183 183" fill="none" xmlns="http://www.w3.org/2000/svg">
<g clip-path="url(#clip0)">
<path d="M129.362 123.053H113.586V109.959C106.172 118.446 105.32 126.208 96.4221 126.208H86.5779C77.6803 126.208 76.8284 118.446 69.4138 109.959V123.053H53.6379C36.2124 123.053 22.0862 137.179 22.0862 154.605V176.691C22.0966 180.172 24.9158 182.991 28.3966 183.001H154.603C158.084 182.991 160.903 180.172 160.914 176.691V154.605C160.914 137.179 146.788 123.053 129.362 123.053Z" fill="#ECF0F1"/>
<path d="M113.586 109.959V123.053C113.586 133.307 106.613 137.472 97.1478 138.545C93.9435 138.874 91.5057 141.571 91.5 144.792C91.4943 141.571 89.0565 138.874 85.8522 138.545C76.3867 137.472 69.4138 133.307 69.4138 123.053V109.959C76.8285 118.446 77.6804 116.743 86.5779 116.743H96.4221C105.32 116.743 106.172 118.446 113.586 109.959Z" fill="#F9C795"/>
<path d="M126.207 123.053C126.545 130.971 123.015 138.561 116.741 143.404C106.487 151.449 91.5 151.449 91.5 151.449V144.792C91.5057 141.571 93.9435 138.874 97.1478 138.545C106.613 137.472 113.586 133.307 113.586 123.053H126.207Z" fill="#2980BA"/>
<path d="M47.3276 160.915V183.001H41.0172V160.915C41.0172 159.172 42.4299 157.76 44.1724 157.76C45.915 157.76 47.3276 159.172 47.3276 160.915Z" fill="#BDC3C7"/>
<path d="M141.983 160.915V183.001H135.672V160.915C135.672 159.172 137.085 157.76 138.828 157.76C140.57 157.76 141.983 159.172 141.983 160.915Z" fill="#BDC3C7"/>
<path d="M91.5 151.448V183H66.2586V143.402C73.3211 148.307 81.6448 151.078 90.2379 151.385C91.0583 151.448 91.5 151.448 91.5 151.448Z" fill="#9FC9D3"/>
<path d="M91.5 144.792V151.449C91.5 151.449 76.5129 151.449 66.2586 143.404C59.9846 138.561 56.4547 130.971 56.7931 123.053H69.4138C69.4138 133.307 76.3867 137.472 85.8523 138.545C89.0565 138.874 91.4943 141.571 91.5 144.792Z" fill="#3B97D3"/>
<path d="M116.741 143.402V183H91.5V151.448C91.5 151.448 91.9417 151.448 92.7621 151.385C101.355 151.078 109.679 148.307 116.741 143.402Z" fill="#84B5CB"/>
<path d="M81.1195 169.464L67.5838 183H66.2586V175.364L74.4305 167.224L66.2586 159.084V150.123L78.8793 162.744V162.775L81.1195 164.984C82.3499 166.224 82.3499 168.224 81.1195 169.464Z" fill="#41767F"/>
<path d="M91.5 159.083L83.3281 167.224L91.5 175.364V183H90.1748L76.6391 169.464C75.4087 168.224 75.4087 166.224 76.6391 164.984L78.8793 162.775V162.743L90.2379 151.385C91.0583 151.448 91.5 151.448 91.5 151.448V159.083Z" fill="#41767F"/>
<path d="M116.741 159.084L108.569 167.224L116.741 175.364V183H115.416L101.881 169.464C100.65 168.224 100.65 166.224 101.881 164.984L104.121 162.775V162.744L116.741 150.123V159.084Z" fill="#41767F"/>
<path d="M106.361 169.464L92.8252 183H91.5V175.364L99.6719 167.224L91.5 159.083V151.448C91.5 151.448 91.9417 151.448 92.7621 151.385L104.121 162.743V162.775L106.361 164.984C107.591 166.224 107.591 168.224 106.361 169.464Z" fill="#41767F"/>
<path d="M135.641 63.1024C135.724 65.7805 135.587 68.4609 135.231 71.1166C133.744 77.2607 129.438 82.3391 123.62 84.81H59.3804C53.5619 82.3391 49.2558 77.2607 47.7693 71.1166C47.4143 68.4609 47.2876 65.7797 47.3907 63.1024L59.1595 59.9473H123.841L135.641 63.1024Z" fill="#F9C795"/>
<path d="M123.62 84.8109C123.967 92.4149 124.345 99.3562 116.11 107.276C115.219 108.122 114.377 109.017 113.586 109.958C106.172 118.445 105.32 126.207 96.4221 126.207H86.5779C77.6804 126.207 76.8285 118.445 69.4138 109.958C68.6233 109.017 67.7806 108.122 66.8897 107.276C58.6547 99.3562 59.0333 92.4149 59.3804 84.8109C59.4435 83.2964 59.5066 81.7819 59.5066 80.2359C59.5066 74.3988 58.1183 71.1175 57.2979 63.1033L91.2476 56.793L125.671 63.1033C124.913 71.1175 123.493 74.3988 123.493 80.2359C123.493 81.7819 123.557 83.2964 123.62 84.8109Z" fill="#FDD7AD"/>
<path d="M138.764 59.3172C138.954 60.2457 138.716 61.2101 138.117 61.944C137.517 62.678 136.62 63.1036 135.672 63.1035H47.3276C46.38 63.1036 45.4825 62.678 44.8832 61.944C44.2838 61.2101 44.046 60.2457 44.2355 59.3172L54.5845 7.60397C55.4711 3.18365 59.3523 0.00212088 63.8607 0H119.139C123.648 0.00212088 127.529 3.18365 128.416 7.60397L138.764 59.3172Z" fill="#393F4A"/>
<path d="M121.474 47.327C121.474 49.0696 120.062 50.4822 118.319 50.4822H46.0024L47.2645 44.1719H118.319C120.062 44.1719 121.474 45.5845 121.474 47.327Z" fill="#56595E"/>
</g>
<defs>
<clipPath id="clip0">
<rect width="183" height="183" fill="white"/>
</clipPath>
</defs>
</svg>
