<svg width="74" height="74" viewBox="0 0 74 74" fill="none" xmlns="http://www.w3.org/2000/svg">
<g clip-path="url(#clip0)">
<path d="M3.96449 31.1345H74V52.8573C74 53.5309 73.4538 54.0771 72.7802 54.0771H5.18434C4.51068 54.0771 3.96449 53.5309 3.96449 52.8573V31.1345Z" fill="#FFE15A"/>
<path d="M74 31.1345H3.96449V9.41158C3.96449 8.73792 4.51068 8.19174 5.18434 8.19174H72.7802C73.4538 8.19174 74 8.73792 74 9.41158V31.1345Z" fill="#4173CD"/>
<path d="M2.76373 70.5457C1.23733 70.5457 0 69.3084 0 67.7821V6.19518C0 4.68136 1.22721 3.45428 2.74104 3.45428H2.76373C4.29012 3.45428 5.52745 4.69162 5.52745 6.21801V67.7823C5.52745 69.3084 4.29012 70.5457 2.76373 70.5457Z" fill="#2E3033"/>
</g>
<defs>
<clipPath id="clip0">
<rect width="74" height="74" fill="white"/>
</clipPath>
</defs>
</svg>
