<svg width="183" height="183" viewBox="0 0 183 183" fill="none" xmlns="http://www.w3.org/2000/svg">
<path d="M91.5 183C142.034 183 183 142.034 183 91.5C183 40.9659 142.034 0 91.5 0C40.9659 0 0 40.9659 0 91.5C0 142.034 40.9659 183 91.5 183Z" fill="#6FC2E5"/>
<path d="M183 91.4668V91.499C183 142.031 142.032 182.999 91.5 182.999C67.2327 182.999 43.9593 173.359 26.7997 156.199C9.64015 139.04 0 115.766 0 91.499V91.4668H183Z" fill="#F6C752"/>
<path d="M183 91.4678V91.5H0V91.4678C0.00852952 67.2061 9.65245 43.941 26.8111 26.7884C43.9698 9.63573 67.2383 -1.49933e-06 91.5 0C142.022 0 183 40.9463 183 91.4678Z" fill="#3586CB"/>
<path d="M102.852 182.284C89.9783 183.894 76.9098 182.747 64.5132 178.921C52.1167 175.094 40.6756 168.675 30.949 160.09C21.2224 151.505 13.4328 140.949 8.097 129.123C2.76117 117.298 0.00112748 104.473 0 91.499L0 91.4668H22.7142V91.499C22.7158 113.797 30.8599 135.328 45.6164 152.045C60.3729 168.762 80.726 179.515 102.852 182.284Z" fill="#F7BB38"/>
<path d="M102.852 0.714422C80.7216 3.47311 60.3623 14.2233 45.6038 30.9427C30.8454 47.6621 22.705 69.1982 22.7142 91.4996H0V91.4674C0.013137 78.4988 2.78153 65.6809 8.12182 53.8628C13.4621 42.0447 21.2524 31.4961 30.9767 22.9156C40.7011 14.3352 52.1375 7.91878 64.5285 4.09137C76.9195 0.26395 89.9823 -0.887112 102.852 0.714422Z" fill="#366FCA"/>
<path d="M158.138 138.319C161.351 138.319 163.957 135.714 163.957 132.5C163.957 129.287 161.351 126.682 158.138 126.682C154.924 126.682 152.319 129.287 152.319 132.5C152.319 135.714 154.924 138.319 158.138 138.319Z" fill="#F6D372"/>
<path d="M166.709 128.053C168.985 128.053 170.83 126.208 170.83 123.932C170.83 121.656 168.985 119.811 166.709 119.811C164.433 119.811 162.588 121.656 162.588 123.932C162.588 126.208 164.433 128.053 166.709 128.053Z" fill="#F6D372"/>
</svg>
