<svg width="74" height="74" viewBox="0 0 74 74" fill="none" xmlns="http://www.w3.org/2000/svg">
<g clip-path="url(#clip0)">
<path d="M72.3541 14.1493C51.2131 21.0517 30.6207 4.40175 8.93103 12.5162V50.7921C30.34 42.5117 51.749 59.7231 73.1579 52.1445C73.6675 51.9603 74.0052 51.4743 74 50.9324V15.3104C73.9816 14.9171 73.7827 14.5543 73.461 14.3274C73.1392 14.1004 72.7308 14.0347 72.3541 14.1493Z" fill="#ECF0F1"/>
<path d="M8.93104 7.65515V71.4482C8.93104 72.8575 7.78859 74 6.37931 74H5.10345C3.69417 74 2.55173 72.8575 2.55173 71.4482V7.65515H8.93104Z" fill="#CB8252"/>
<path d="M5.74138 11.4828C8.91226 11.4828 11.4828 8.91226 11.4828 5.74138C11.4828 2.5705 8.91226 0 5.74138 0C2.5705 0 0 2.5705 0 5.74138C0 8.91226 2.5705 11.4828 5.74138 11.4828Z" fill="#CBB292"/>
<path d="M74 32.7003V39.0796C52.3103 47.4621 30.6207 29.651 8.93103 38.0334V31.6541C30.6207 23.2845 52.3103 41.0827 74 32.7003Z" fill="#E64C3C"/>
<path d="M74 19.9417V26.321C62.9383 30.6207 51.8893 28.0689 40.8276 25.6576V19.2783C51.8893 21.6896 62.9383 24.2414 74 19.9417Z" fill="#E64C3C"/>
<path d="M40.8276 12.8989V32.0369C29.8934 29.6638 19.4314 27.5969 8.93103 31.6541V12.5162C19.4059 8.58654 29.1024 10.3472 40.8276 12.8989Z" fill="#285680"/>
<path d="M74 45.459V50.9324C74.0052 51.4743 73.6675 51.9603 73.1579 52.1445C51.749 59.7997 30.34 42.5117 8.93103 50.7921V44.4128C30.6207 36.0303 52.3103 53.8414 74 45.459Z" fill="#E64C3C"/>
<path d="M17.6197 15.6293C18.819 17.5559 18.8317 17.7472 19.2655 17.76L21.4345 17.8621C21.6741 17.878 21.8845 18.0273 21.9788 18.2481C22.073 18.469 22.0353 18.7242 21.881 18.9083C20.4138 20.6562 20.2479 20.72 20.4138 21.141L20.9879 23.2334C21.0597 23.4682 20.9875 23.7232 20.8033 23.8855C20.619 24.0477 20.3569 24.0871 20.1331 23.9862C18.0279 23.1314 17.9131 22.991 17.5814 23.2334L15.7824 24.42C15.58 24.5577 15.3167 24.5675 15.1047 24.4452C14.8926 24.3229 14.7693 24.09 14.7872 23.8459C14.9531 21.5748 15.0552 21.4217 14.7107 21.141L13.0138 19.8014C12.8209 19.6489 12.7328 19.3992 12.7873 19.1595C12.8418 18.9198 13.0292 18.7327 13.269 18.6786C15.4762 18.13 15.6421 18.181 15.8207 17.76L16.5734 15.7441C16.6768 15.5634 16.8604 15.443 17.0673 15.4203C17.2743 15.3976 17.4796 15.4753 17.6197 15.6293Z" fill="#ECF0F1"/>
<path d="M31.9859 16.0758C32.7897 18.2065 32.7642 18.3851 33.1979 18.4872L35.3031 18.9976C35.5369 19.0551 35.7183 19.2394 35.7722 19.474C35.8262 19.7087 35.7434 19.9537 35.5583 20.1076C33.7848 21.5365 33.6062 21.5748 33.6445 22.0086L33.8104 24.1648C33.8299 24.4069 33.7102 24.6392 33.5017 24.7637C33.2931 24.8883 33.0319 24.8837 32.8279 24.7517C30.9142 23.4758 30.8248 23.3482 30.4166 23.4758L28.4262 24.2924C28.2014 24.389 27.9412 24.3484 27.7564 24.1881C27.5715 24.0277 27.4947 23.7758 27.5586 23.5396C28.1455 21.3451 28.2859 21.2048 27.9924 20.8731L26.589 19.2272C26.4337 19.0413 26.3971 18.7835 26.4944 18.5618C26.5918 18.34 26.8064 18.1925 27.0483 18.181C29.3193 18.0534 29.4724 18.181 29.7148 17.76L30.8376 15.9227C30.9767 15.7219 31.2164 15.6159 31.4586 15.6482C31.7007 15.6805 31.9043 15.8456 31.9859 16.0758Z" fill="#ECF0F1"/>
</g>
<defs>
<clipPath id="clip0">
<rect width="74" height="74" fill="white"/>
</clipPath>
</defs>
</svg>
